<?xml version="1.0" encoding="UTF-8" standalone="no"?><!DOCTYPE svg PUBLIC "-//W3C//DTD SVG 1.1//EN" "http://www.w3.org/Graphics/SVG/1.1/DTD/svg11.dtd"><svg width="100%" height="100%" viewBox="0 0 769 577" version="1.1" xmlns="http://www.w3.org/2000/svg" xmlns:xlink="http://www.w3.org/1999/xlink" xml:space="preserve" xmlns:serif="http://www.serif.com/" style="fill-rule:evenodd;clip-rule:evenodd;stroke-linecap:round;stroke-linejoin:round;stroke-miterlimit:1.5;"><rect id="Artboard2" x="0.484" y="0.317" width="768" height="576" style="fill:#fff;"/><clipPath id="_clip1"><rect x="0.484" y="0.317" width="768" height="576"/></clipPath><g clip-path="url(#_clip1)"><path d="M296.17,401.647c0,0 55.192,35.919 -0.877,40.3c-56.068,4.38 -0.939,63.421 36.732,23.121c14.643,-15.664 7.173,-63.045 14.608,-75.172c11.691,-19.07 34.432,-19.457 40.859,-4.997" style="fill:none;stroke:#174db6;stroke-width:4.75px;stroke-dasharray:4.75,14.25,0,0;"/><circle cx="159.571" cy="105.307" r="32.32" style="fill:#174db6;"/><path d="M131.942,165.657c-12.899,-2.596 -25.462,5.748 -28.07,18.644c-8.075,39.91 -23.67,117.002 -23.67,117.002l0.871,13.964l19.976,4.021l30.922,-153.625c0,0 -0.01,-0.002 -0.029,-0.006Z" style="fill:#174db6;"/><path d="M202.881,268.596l-76.085,3.333l1.015,19.283l-9.914,82.687l24.042,9.878l31.019,-69.253l56.784,47.351l14.537,-10.166l-43.205,-67.475l1.807,-15.638Z" style="fill:#174db6;"/><path d="M308.043,171.051c-0.914,-1.775 -3.189,-2.423 -5.081,-1.447c-1.892,0.975 -2.685,3.204 -1.77,4.978c0.914,1.775 3.189,2.422 5.082,1.447c1.892,-0.975 2.684,-3.204 1.769,-4.978Z" style="fill:#fff;"/><path d="M332.682,195.91c-2.025,-6.01 -8.538,-9.241 -14.547,-7.216c-21.102,7.107 -65.527,22.072 -65.527,22.072l7.045,20.914c0,0 45.645,-15.375 66.377,-22.358c2.66,-0.897 4.856,-2.813 6.103,-5.328c1.248,-2.515 1.445,-5.423 0.549,-8.083c0,0 0,-0.001 0,-0.001Z" style="fill:#174db6;"/><path d="M249.377,224.623l-54.524,-51.464c0,0 0.001,-0.001 0.001,-0.001c2.288,-6.326 7.681,-11.021 14.261,-12.418c6.58,-1.396 13.415,0.705 18.075,5.556l39.442,41.063c4.175,2.12 7.039,6.456 7.039,11.456c0,7.087 -5.754,12.84 -12.841,12.84c-4.997,0 -9.331,-2.86 -11.453,-7.032Z" style="fill:#174db6;"/><ellipse cx="90.736" cy="313.937" rx="12.866" ry="12.508" style="fill:#174db6;"/><ellipse cx="327.327" cy="200.244" rx="15.248" ry="14.457" style="fill:#174db6;"/><path d="M165.342,151.989l-0.685,-0.699c0,0 22.197,-2.561 36.648,-4.229c7.649,-0.883 15.269,1.873 20.584,7.445c10.649,11.166 27.595,28.933 27.595,28.933l-27.566,26.293l-9.701,-9.901c-0.069,1.296 -0.195,2.594 -0.377,3.89c-4.344,30.905 -9.164,65.201 -9.164,65.201l-75.285,10.499l-7.817,-61.374l-30.639,-17.589c0,0 11.842,-20.626 19.54,-34.035c4.039,-7.035 11.292,-11.621 19.379,-12.254c14.734,-1.152 36.803,-2.879 36.803,-2.879l-0.465,0.743c0.383,-0.019 0.766,-0.034 1.15,-0.044Z" style="fill:#ffc107;"/><g><rect x="135.191" y="99.22" width="48.858" height="48.977" style="fill:#fff;"/><clipPath id="_clip2"><rect x="135.039" y="97.429" width="49.851" height="37.497"/></clipPath><g clip-path="url(#_clip2)"><ellipse cx="161.005" cy="110.969" rx="34.293" ry="23.077" style="fill:#174db6;"/></g><g><path d="M138.189,116.558c0.59,0.049 1.031,0.301 1.063,0.621l0,18.255c-0.057,0.571 -0.583,0.595 -1.063,0.621c-0.661,0.037 -1.275,-0.264 -1.31,-0.621l0,-18.255c0.035,-0.354 0.585,-0.641 1.31,-0.621Z" style="fill:#fff;fill-rule:nonzero;"/><path d="M149.172,126.755c0.59,0.024 1.031,0.15 1.063,0.31l0,9.128c-0.057,0.285 -0.584,0.297 -1.063,0.31c-0.661,0.019 -1.275,-0.132 -1.31,-0.31l0,-9.128c0.035,-0.177 0.585,-0.32 1.31,-0.31Z" style="fill:#fff;fill-rule:nonzero;"/><path d="M162.307,125.223c0.59,0.028 1.031,0.174 1.063,0.359l0,10.562c-0.057,0.33 -0.584,0.344 -1.063,0.359c-0.661,0.021 -1.275,-0.153 -1.31,-0.359l0,-10.562c0.035,-0.205 0.585,-0.371 1.31,-0.359Z" style="fill:#fff;fill-rule:nonzero;"/><path d="M174.777,109.388c0.589,0.066 1.03,0.402 1.062,0.83l0,24.383c-0.057,0.762 -0.583,0.794 -1.062,0.829c-0.662,0.049 -1.275,-0.353 -1.311,-0.829l0,-24.383c0.035,-0.473 0.585,-0.857 1.311,-0.83Z" style="fill:#fff;fill-rule:nonzero;"/><path d="M184.111,118.405c0.59,0.034 1.031,0.208 1.063,0.428l0,12.578c-0.057,0.393 -0.584,0.409 -1.063,0.428c-0.661,0.025 -1.275,-0.183 -1.31,-0.428l0,-12.578c0.035,-0.244 0.585,-0.442 1.31,-0.428Z" style="fill:#fff;fill-rule:nonzero;"/><path d="M161.553,125.222l0,10.212" style="fill:#fff;"/><path d="M184.353,118.871l0,16.563" style="fill:#fff;"/><path d="M154.696,103.373l0,1.585c0,0.736 -3.943,3.546 -4.738,4.211c-0.911,0.761 -1.799,1.152 -2.644,1.979c-0.921,0.903 -0.806,2.727 -1.737,2.727l-0.253,0.078l-5.026,-0.673c-0.405,0.291 -3.36,3.11 -3.36,3.368c0,1.172 6.952,1.586 8.639,1.586c0.972,1.197 0.368,1.331 2.405,1.779c1.117,0.246 2.072,0.894 2.685,1.63l-6.049,5.309c1.386,0.266 2.377,0.792 4.079,0.792c2.122,0 7.101,-4.953 8.159,-4.953c1.091,0 3.002,2.774 5.76,2.774c0.552,0 1.737,-0.428 2.16,-0.595c0.816,0.452 1.002,1.189 1.679,1.189l0.24,0c1.68,0 8.151,-4.36 8.168,-4.427l6.711,0.464c0.622,0.049 3.576,-3.076 3.6,-3.962c-1.898,-0.131 -6.592,-0.875 -8.498,-1.306c-2.112,-0.476 -1.305,-1.059 -1.633,-2.813c-0.12,-0.648 -0.122,-0.952 -0.185,-1.829c-0.058,-0.818 -0.723,-1.578 -0.723,-1.582c0,-0.686 3.676,-3.17 4.32,-3.962l0.087,-0.188l-4.647,-1.397c-0.371,0.162 -1.871,1.188 -1.92,1.188c-1.75,0 -1.68,-6.749 -1.68,-8.519c-0.644,-0.128 -0.452,-0.199 -0.959,-0.199c-0.872,0 -1.201,1.313 -1.201,1.982c0,5.663 -0.086,5.359 2.946,8.664c1.985,2.164 4.191,4.148 3.054,8.177c-3.746,0 -8.096,-1.753 -9.839,0.397c0,2.645 -1.007,3.764 3.36,3.764c-0.311,0.959 -3.961,3.567 -5.52,3.567c-1.355,0 -3.464,-2.133 -3.596,-2.977c-0.13,-0.84 0.236,-4.299 0.264,-5.715l-6.792,4.913l-0.195,-0.184c-0.004,-0.004 -0.24,-0.37 -0.24,-0.396c0,-1.185 3.224,-4.404 3.36,-5.746c-2.004,0.441 -2.734,4.113 -5.04,4.557l0,-0.594c0,-1.994 0.96,-2.831 0.96,-4.558l-0.48,0c-0.441,1.565 -0.951,4.351 -2.4,5.152c-0.373,-0.207 -0.72,-0.263 -0.72,-0.792l0,-1.586c0,-3.377 1.956,-4.305 3.904,-6.089c0.692,-0.635 5.215,-4.584 5.215,-5.006l0,-2.378c0,-1.547 -0.248,-5.35 -1.919,-5.35c-1.064,0 0.239,4.936 0.239,5.944Zm11.759,19.814c0.173,-0.534 2.46,-2.238 2.881,-2.18l3.594,0.422l-2.768,2.066c-0.25,-0.551 -0.163,-0.704 -0.826,-0.704l-0.241,0c-1.304,0 -1.291,0.371 -2.64,0.396Zm2.64,0.793c-0.522,0.644 -1.194,1.106 -2.4,1.188l0,-0.594c0,-0.382 -0.075,-0.353 -0.24,-0.594c0.404,-0.166 1.077,-0.397 1.68,-0.397c0.028,0 0.862,0.354 0.96,0.397Z" style="fill:#fff;"/><path d="M137.624,117.179l0,15.403l0,2.852" style="fill:#fff;"/></g><g><text x="146.799px" y="144.43px" style="font-family:'Corleone';font-size:9.269px;fill:#174db6;">0</text><text x="170.669px" y="144.43px" style="font-family:'Corleone';font-size:9.269px;fill:#174db6;">0</text><text x="136.102px" y="144.519px" style="font-family:'Corleone';font-size:9.269px;fill:#174db6;">1</text><text x="158.871px" y="144.399px" style="font-family:'Corleone';font-size:9.269px;fill:#174db6;">1</text><text x="180.323px" y="144.311px" style="font-family:'Corleone';font-size:9.269px;fill:#174db6;">1</text></g></g><g id="face-worried"><rect id="rect87318-0-2-1" x="60.672" y="57.373" width="39.936" height="39.936" style="fill:none;"/></g><ellipse cx="128.68" cy="374.863" rx="11.939" ry="11.371" style="fill:#174db6;"/><path d="M142.756,375.123l-22.823,4.173l-3.398,46.131l-4.769,51.349l10.984,0.956l19.98,-60.659l0.026,-41.95Z" style="fill:#174db6;"/><path d="M217.936,349.382l14.391,18.198l42.335,-18.64l47.585,-19.878l-4.309,-10.149l-62.943,10.812l-37.059,19.657Z" style="fill:#174db6;"/><path d="M116.99,479.554l-0.001,0.029l-20.079,0l-20.076,-0.317c0.191,-9.901 7.186,-14.878 17.708,-11.838c10.596,3.062 22.868,-16.059 22.379,-15.352c-0.831,1.199 1.579,3.212 1.694,6.069c0.744,-0.188 1.521,-0.287 2.319,-0.287c5.576,0 7.223,4.042 11.131,8.553c6.446,7.441 -0.38,14.258 -11.131,13.076c-0.793,-0.088 -2.36,0.071 -3.944,0.067Z" style="fill:#174db6;"/><path d="M336.104,315.431l0.023,-0.018l12.419,15.779l12.168,15.971c-7.898,5.974 -16.136,3.556 -20.254,-6.593c-4.148,-10.221 -26.764,-8.037 -25.905,-8.09c1.456,-0.089 1.547,-3.227 3.721,-5.084c-0.608,-0.47 -1.166,-1.018 -1.659,-1.645c-3.449,-4.382 -1.292,-8.176 -0.164,-14.037c1.86,-9.668 11.438,-8.52 17.159,0.66c0.422,0.676 1.516,1.809 2.492,3.057Z" style="fill:#174db6;"/><path d="M334.083,206.453c0,0 3.243,52.228 62.115,58.92" style="fill:none;stroke:#174db6;stroke-width:4.75px;"/><path d="M424.192,306.164c-15.289,-14.041 -181.139,-63.372 -138.871,58.526" style="fill:none;stroke:#174db6;stroke-width:4.75px;"/><path d="M425.388,299.331c0,0 64.462,14.276 68.423,83.423" style="fill:none;stroke:#174db6;stroke-width:4.75px;"/><path d="M313.078,360.51l-53.395,0l7.504,53.395l53.395,0l-7.504,-53.395Z" style="fill:#ffc107;"/><path d="M444.785,434.83l-55.503,-28.641l-19.658,56.15l55.503,28.642l19.658,-56.151Z" style="fill:#ffc107;"/><g transform="matrix(0.787843,-0.615876,0.615876,0.787843,-1583.66,-1536.97)"><text x="328.29px" y="2813.08px" style="font-family:'ArialMT', 'Arial', sans-serif;font-size:60.758px;fill:#fff;">?</text></g><path d="M527.187,398.205l-53.396,0l-16.324,53.395l53.395,0l16.325,-53.395Z" style="fill:#ffc107;"/><path d="M437.05,276.227l-53.396,0l20.497,53.396l53.395,0l-20.496,-53.396Z" style="fill:#ffc107;"/><path d="M410.119,275.59l-25.699,-3.932l13.425,-18.986l12.274,22.918Z" style="fill:#174db6;"/><path d="M493.896,396.097l-11.378,-23.375l23.251,0.247l-11.873,23.128Z" style="fill:#174db6;"/><path d="M388.832,403.623l-17.244,-19.455l22.462,-6.013l-5.218,25.468Z" style="fill:#174db6;"/><text x="403.349px" y="144.536px" style="font-family:'FranklinGothic-Demi', 'Franklin Gothic Demi', sans-serif;font-size:59.028px;fill:#9e9e9e;">B<tspan x="442.242px 474.166px 506.644px 538.452px 565.39px 581.221px 613.175px 645.507px 666.236px 698.568px " y="144.536px 144.536px 144.536px 144.536px 144.536px 144.536px 144.536px 144.536px 144.536px 144.536px ">ehavioural</tspan></text><path d="M776.127,230.542c91.373,131.017 -510.523,402.816 -644.467,244.883c-4.837,-5.703 -48.804,-10.016 -51.275,1.523c-9.765,45.594 -87.317,12.039 -98.946,72.226c-4.06,21.013 2.446,40.72 2.446,40.72l797.518,10.738c0,0 -3.518,-246.727 -5.276,-370.09" style="fill:#174db6;stroke:#174db6;stroke-width:1.54px;"/><text x="435.723px" y="190.107px" style="font-family:'FranklinGothic-Demi', 'Franklin Gothic Demi', sans-serif;font-size:59.028px;fill:#9e9e9e;">Diagrams</text></g></svg>