<?xml version="1.0" encoding="UTF-8" standalone="no"?><!DOCTYPE svg PUBLIC "-//W3C//DTD SVG 1.1//EN" "http://www.w3.org/Graphics/SVG/1.1/DTD/svg11.dtd"><svg width="100%" height="100%" viewBox="0 0 769 576" version="1.1" xmlns="http://www.w3.org/2000/svg" xmlns:xlink="http://www.w3.org/1999/xlink" xml:space="preserve" xmlns:serif="http://www.serif.com/" style="fill-rule:evenodd;clip-rule:evenodd;stroke-linecap:round;stroke-linejoin:round;stroke-miterlimit:1.5;"><rect id="Artboard2" x="0.092" y="0" width="768" height="576" style="fill:#fff;"/><clipPath id="_clip1"><rect x="0.092" y="0" width="768" height="576"/></clipPath><g clip-path="url(#_clip1)"><path d="M295.777,401.331c0,0 55.193,35.919 -0.876,40.299c-56.068,4.381 -0.939,63.421 36.732,23.121c14.643,-15.664 7.173,-63.045 14.608,-75.171c11.691,-19.07 34.432,-19.458 40.858,-4.998" style="fill:none;stroke:#174db6;stroke-width:4.75px;stroke-dasharray:4.75,14.25,0,0;"/><circle cx="159.179" cy="104.99" r="32.32" style="fill:#174db6;"/><path d="M131.549,165.341c-12.898,-2.597 -25.461,5.747 -28.07,18.643c-8.074,39.911 -23.67,117.002 -23.67,117.002l0.872,13.965l19.975,4.02l30.923,-153.624c0,0 -0.01,-0.002 -0.03,-0.006Z" style="fill:#174db6;"/><path d="M202.488,268.279l-76.084,3.334l1.014,19.283l-9.913,82.686l24.042,9.878l31.019,-69.252l56.784,47.351l14.537,-10.167l-43.205,-67.475l1.806,-15.638Z" style="fill:#174db6;"/><path d="M307.651,170.734c-0.914,-1.774 -3.189,-2.422 -5.082,-1.447c-1.892,0.975 -2.684,3.204 -1.769,4.979c0.914,1.774 3.189,2.422 5.081,1.447c1.893,-0.976 2.685,-3.205 1.77,-4.979Z" style="fill:#fff;"/><path d="M332.29,195.593c-2.025,-6.01 -8.538,-9.24 -14.548,-7.216c-21.101,7.108 -65.526,22.072 -65.526,22.072l7.045,20.915c0,0 45.645,-15.376 66.376,-22.359c2.661,-0.896 4.857,-2.813 6.104,-5.328c1.248,-2.515 1.445,-5.422 0.549,-8.083c0,0 0,0 0,-0.001Z" style="fill:#174db6;"/><path d="M248.985,224.307l-54.524,-51.465c0,0 0.001,0 0.001,-0.001c2.288,-6.326 7.681,-11.021 14.261,-12.417c6.58,-1.397 13.415,0.704 18.074,5.556l39.443,41.062c4.175,2.121 7.038,6.457 7.038,11.456c0,7.087 -5.753,12.841 -12.84,12.841c-4.997,0 -9.331,-2.861 -11.453,-7.032Z" style="fill:#174db6;"/><ellipse cx="90.344" cy="313.621" rx="12.866" ry="12.508" style="fill:#174db6;"/><ellipse cx="326.935" cy="199.927" rx="15.248" ry="14.457" style="fill:#174db6;"/><path d="M164.95,151.672l-0.685,-0.698c0,0 22.197,-2.562 36.648,-4.23c7.649,-0.883 15.269,1.873 20.583,7.445c10.65,11.166 27.596,28.934 27.596,28.934l-27.567,26.292l-9.7,-9.901c-0.069,1.297 -0.195,2.595 -0.377,3.891c-4.344,30.905 -9.164,65.2 -9.164,65.2l-75.285,10.5l-7.818,-61.374l-30.638,-17.59c0,0 11.841,-20.625 19.54,-34.035c4.039,-7.035 11.292,-11.621 19.379,-12.254c14.734,-1.152 36.803,-2.878 36.803,-2.878l-0.465,0.742c0.383,-0.019 0.766,-0.034 1.15,-0.044Z" style="fill:#ffc107;"/><g><rect x="134.799" y="98.903" width="48.858" height="48.977" style="fill:#fff;"/><clipPath id="_clip2"><rect x="134.647" y="97.113" width="49.851" height="37.497"/></clipPath><g clip-path="url(#_clip2)"><ellipse cx="160.613" cy="110.652" rx="34.293" ry="23.077" style="fill:#174db6;"/></g><g><path d="M137.797,116.241c0.59,0.049 1.031,0.301 1.063,0.621l0,18.255c-0.057,0.571 -0.584,0.595 -1.063,0.622c-0.661,0.036 -1.275,-0.265 -1.31,-0.622l0,-18.255c0.035,-0.354 0.585,-0.641 1.31,-0.621Z" style="fill:#fff;fill-rule:nonzero;"/><path d="M148.78,126.438c0.59,0.025 1.031,0.151 1.063,0.311l0,9.127c-0.057,0.286 -0.584,0.298 -1.063,0.311c-0.661,0.018 -1.275,-0.132 -1.31,-0.311l0,-9.127c0.035,-0.177 0.585,-0.321 1.31,-0.311Z" style="fill:#fff;fill-rule:nonzero;"/><path d="M161.915,124.906c0.59,0.028 1.031,0.174 1.063,0.359l0,10.562c-0.057,0.331 -0.584,0.344 -1.063,0.36c-0.661,0.021 -1.275,-0.153 -1.31,-0.36l0,-10.562c0.035,-0.205 0.585,-0.371 1.31,-0.359Z" style="fill:#fff;fill-rule:nonzero;"/><path d="M174.385,109.071c0.589,0.066 1.03,0.403 1.062,0.83l0,24.383c-0.057,0.762 -0.583,0.794 -1.062,0.829c-0.662,0.049 -1.275,-0.353 -1.311,-0.829l0,-24.383c0.035,-0.473 0.585,-0.856 1.311,-0.83Z" style="fill:#fff;fill-rule:nonzero;"/><path d="M183.719,118.089c0.59,0.033 1.031,0.207 1.063,0.427l0,12.578c-0.057,0.393 -0.584,0.41 -1.063,0.428c-0.661,0.025 -1.275,-0.182 -1.31,-0.428l0,-12.578c0.035,-0.244 0.585,-0.441 1.31,-0.427Z" style="fill:#fff;fill-rule:nonzero;"/><path d="M161.161,124.905l0,10.212" style="fill:#fff;"/><path d="M183.961,118.555l0,16.562" style="fill:#fff;"/><path d="M154.304,103.057l0,1.585c0,0.735 -3.943,3.546 -4.739,4.211c-0.91,0.76 -1.798,1.151 -2.643,1.979c-0.921,0.902 -0.806,2.726 -1.737,2.726l-0.253,0.078l-5.026,-0.672c-0.405,0.29 -3.36,3.11 -3.36,3.368c0,1.171 6.952,1.585 8.639,1.585c0.972,1.198 0.368,1.331 2.405,1.779c1.117,0.246 2.071,0.895 2.685,1.631l-6.05,5.308c1.387,0.267 2.378,0.792 4.08,0.792c2.121,0 7.1,-4.953 8.159,-4.953c1.091,0 3.002,2.774 5.76,2.774c0.551,0 1.737,-0.427 2.16,-0.594c0.816,0.451 1.002,1.188 1.679,1.188l0.24,0c1.68,0 8.151,-4.359 8.168,-4.427l6.711,0.465c0.621,0.048 3.576,-3.077 3.6,-3.963c-1.898,-0.13 -6.592,-0.875 -8.498,-1.305c-2.112,-0.477 -1.305,-1.06 -1.633,-2.814c-0.121,-0.648 -0.122,-0.952 -0.185,-1.828c-0.058,-0.819 -0.723,-1.579 -0.723,-1.582c0,-0.687 3.676,-3.17 4.32,-3.963l0.087,-0.188l-4.647,-1.397c-0.371,0.162 -1.871,1.189 -1.92,1.189c-1.75,0 -1.68,-6.75 -1.68,-8.52c-0.644,-0.127 -0.452,-0.198 -0.96,-0.198c-0.871,0 -1.2,1.312 -1.2,1.981c0,5.663 -0.087,5.359 2.946,8.664c1.985,2.164 4.19,4.148 3.054,8.178c-3.747,0 -8.097,-1.753 -9.84,0.396c0,2.645 -1.006,3.765 3.36,3.765c-0.31,0.958 -3.96,3.566 -5.519,3.566c-1.355,0 -3.464,-2.133 -3.596,-2.977c-0.13,-0.839 0.236,-4.299 0.264,-5.715l-6.792,4.914l-0.195,-0.185c-0.004,-0.004 -0.24,-0.369 -0.24,-0.396c0,-1.184 3.224,-4.404 3.359,-5.746c-2.003,0.442 -2.734,4.114 -5.039,4.557l0,-0.594c0,-1.993 0.96,-2.831 0.96,-4.557l-0.48,0c-0.442,1.565 -0.951,4.35 -2.4,5.151c-0.373,-0.206 -0.72,-0.263 -0.72,-0.792l0,-1.585c0,-3.377 1.956,-4.306 3.903,-6.09c0.693,-0.634 5.216,-4.584 5.216,-5.006l0,-2.377c0,-1.548 -0.249,-5.35 -1.92,-5.35c-1.063,0 0.24,4.935 0.24,5.944Zm11.759,19.814c0.173,-0.535 2.46,-2.238 2.88,-2.18l3.595,0.421l-2.768,2.066c-0.25,-0.551 -0.163,-0.704 -0.827,-0.704l-0.24,0c-1.304,0 -1.291,0.372 -2.64,0.397Zm2.64,0.792c-0.523,0.644 -1.195,1.106 -2.4,1.189l0,-0.595c0,-0.382 -0.075,-0.352 -0.24,-0.594c0.404,-0.165 1.077,-0.396 1.68,-0.396c0.028,0 0.862,0.353 0.96,0.396Z" style="fill:#fff;"/><path d="M137.232,116.862l0,15.403l0,2.852" style="fill:#fff;"/></g><g><text x="146.406px" y="144.114px" style="font-family:'Corleone';font-size:9.269px;fill:#174db6;">0</text><text x="170.277px" y="144.114px" style="font-family:'Corleone';font-size:9.269px;fill:#174db6;">0</text><text x="135.71px" y="144.202px" style="font-family:'Corleone';font-size:9.269px;fill:#174db6;">1</text><text x="158.479px" y="144.082px" style="font-family:'Corleone';font-size:9.269px;fill:#174db6;">1</text><text x="179.931px" y="143.995px" style="font-family:'Corleone';font-size:9.269px;fill:#174db6;">1</text></g></g><g id="face-worried"><rect id="rect87318-0-2-1" x="60.28" y="57.056" width="39.936" height="39.936" style="fill:none;"/></g><ellipse cx="128.288" cy="374.546" rx="11.939" ry="11.371" style="fill:#174db6;"/><path d="M142.364,374.806l-22.823,4.173l-3.399,46.131l-4.768,51.349l10.984,0.956l19.98,-60.658l0.026,-41.951Z" style="fill:#174db6;"/><path d="M217.543,349.065l14.392,18.198l42.335,-18.64l47.585,-19.877l-4.309,-10.149l-62.943,10.811l-37.06,19.657Z" style="fill:#174db6;"/><path d="M116.597,479.237l0,0.029l-20.079,0l-20.076,-0.317c0.191,-9.901 7.186,-14.878 17.708,-11.837c10.596,3.062 22.868,-16.06 22.379,-15.353c-0.832,1.2 1.579,3.212 1.694,6.069c0.744,-0.187 1.521,-0.287 2.318,-0.287c5.577,0 7.224,4.042 11.132,8.553c6.446,7.442 -0.38,14.258 -11.132,13.076c-0.792,-0.087 -2.359,0.072 -3.944,0.067Z" style="fill:#174db6;"/><path d="M335.712,315.115l0.023,-0.018l12.419,15.778l12.168,15.972c-7.898,5.973 -16.136,3.555 -20.254,-6.594c-4.148,-10.22 -26.764,-8.037 -25.905,-8.089c1.456,-0.089 1.547,-3.228 3.721,-5.085c-0.608,-0.469 -1.166,-1.018 -1.66,-1.645c-3.449,-4.382 -1.291,-8.176 -0.164,-14.037c1.861,-9.668 11.439,-8.52 17.16,0.66c0.421,0.677 1.515,1.809 2.492,3.058Z" style="fill:#174db6;"/><path d="M333.691,206.136c0,0 3.243,52.228 62.115,58.92" style="fill:none;stroke:#174db6;stroke-width:4.75px;"/><path d="M423.799,305.847c-15.288,-14.04 -181.138,-63.372 -138.87,58.526" style="fill:none;stroke:#174db6;stroke-width:4.75px;"/><path d="M424.996,299.014c0,0 64.462,14.276 68.423,83.423" style="fill:none;stroke:#174db6;stroke-width:4.75px;"/><path d="M312.686,360.193l-53.395,0l7.504,53.396l53.395,0l-7.504,-53.396Z" style="fill:#ffc107;"/><path d="M444.393,434.513l-55.503,-28.641l-19.658,56.151l55.503,28.641l19.658,-56.151Z" style="fill:#ffc107;"/><g transform="matrix(0.787843,-0.615876,0.615876,0.787843,-1583.55,-1537.27)"><text x="327.898px" y="2812.76px" style="font-family:'ArialMT', 'Arial', sans-serif;font-size:60.758px;fill:#fff;">?</text></g><path d="M526.795,397.888l-53.396,0l-16.324,53.396l53.395,0l16.325,-53.396Z" style="fill:#ffc107;"/><path d="M436.657,275.911l-53.395,0l20.497,53.395l53.395,0l-20.497,-53.395Z" style="fill:#ffc107;"/><path d="M409.727,275.273l-25.699,-3.932l13.425,-18.986l12.274,22.918Z" style="fill:#174db6;"/><path d="M493.504,395.781l-11.378,-23.375l23.251,0.247l-11.873,23.128Z" style="fill:#174db6;"/><path d="M388.44,403.307l-17.244,-19.455l22.462,-6.014l-5.218,25.469Z" style="fill:#174db6;"/><text x="435.194px" y="139.823px" style="font-family:'FranklinGothic-Demi', 'Franklin Gothic Demi', sans-serif;font-size:59.028px;fill:#9e9e9e;">C<tspan x="472.658px 488.489px 520.821px 549.072px " y="139.823px 139.823px 139.823px 139.823px ">lass</tspan></text><path d="M775.735,230.225c91.373,131.017 -510.524,402.817 -644.467,244.883c-4.837,-5.703 -48.804,-10.016 -51.275,1.523c-9.765,45.594 -87.318,12.039 -98.946,72.226c-4.06,21.013 2.445,40.72 2.445,40.72l797.519,10.738c0,0 -3.518,-246.726 -5.276,-370.09" style="fill:#174db6;stroke:#174db6;stroke-width:1.54px;"/><text x="435.331px" y="189.79px" style="font-family:'FranklinGothic-Demi', 'Franklin Gothic Demi', sans-serif;font-size:59.028px;fill:#9e9e9e;">Diagrams</text></g></svg>