<?xml version="1.0" encoding="UTF-8" standalone="no"?><!DOCTYPE svg PUBLIC "-//W3C//DTD SVG 1.1//EN" "http://www.w3.org/Graphics/SVG/1.1/DTD/svg11.dtd"><svg width="100%" height="100%" viewBox="0 0 768 576" version="1.1" xmlns="http://www.w3.org/2000/svg" xmlns:xlink="http://www.w3.org/1999/xlink" xml:space="preserve" xmlns:serif="http://www.serif.com/" style="fill-rule:evenodd;clip-rule:evenodd;stroke-linejoin:round;stroke-miterlimit:1.41421;"><rect id="Artboard1" x="0" y="0" width="768" height="576" style="fill:#fff;"/><clipPath id="_clip1"><rect id="Artboard11" serif:id="Artboard1" x="0" y="0" width="768" height="576"/></clipPath><g clip-path="url(#_clip1)"><g><path id="human-male" d="M38.097,438.972c1.315,0 2.38,1.182 2.38,2.641c0,1.458 -1.065,2.641 -2.38,2.641c-1.314,0 -2.38,-1.183 -2.38,-2.641c0,-1.459 1.066,-2.641 2.38,-2.641Zm-1.785,6.603l3.57,0c1.315,0 2.38,1.182 2.38,2.641l0,7.263l-1.785,0l0,9.905l-4.76,0l0,-9.905l-1.785,0l0,-7.263c0,-1.459 1.066,-2.641 2.38,-2.641Z" style="fill:#bebebe;fill-rule:nonzero;"/><path id="lightbulb-on" d="M54.589,422.344c2.789,-0.017 5.066,2.304 5.087,5.185c0.013,1.93 -0.99,3.622 -2.493,4.533l0.011,1.567c0.003,0.48 -0.371,0.872 -0.835,0.875l-3.367,0.02c-0.464,0.003 -0.844,-0.384 -0.847,-0.864l-0.012,-1.567c-1.515,-0.892 -2.543,-2.572 -2.557,-4.502c-0.02,-2.881 2.224,-5.23 5.013,-5.247Zm1.776,13.029l0.006,0.869c0.003,0.48 -0.371,0.872 -0.835,0.875l-1.684,0.01c-0.464,0.003 -0.844,-0.384 -0.847,-0.864l-0.007,-0.869l3.367,-0.021Zm4.988,-8.724l2.524,-0.016l0.013,1.739l-2.525,0.016l-0.012,-1.739Zm-15.991,0.098l2.525,-0.015l0.012,1.738l-2.524,0.016l-0.013,-1.739Zm10.031,-8.756l0.019,2.608l-1.684,0.01l-0.018,-2.607l1.683,-0.011Zm-6.774,2.23l1.798,1.833l-1.181,1.237l-1.798,-1.833l1.181,-1.237Zm10.135,1.778l1.772,-1.855l1.199,1.222l-1.772,1.855l-1.199,-1.222Z" style="fill:#bebebe;fill-rule:nonzero;"/><path id="human-handsup" d="M43.772,438.972c0.008,3.684 2.415,7.042 6.201,8.622l0,20.037l3.105,0l0,-9.555l3.096,0l0,9.555l3.105,0l0,-20.044c3.786,-1.579 6.193,-4.931 6.201,-8.615l-3.096,0c0,3.771 -3.475,6.822 -7.753,6.822c-4.286,0 -7.754,-3.051 -7.754,-6.822m7.754,0c-1.719,0 -3.105,1.219 -3.105,2.732c0,1.505 1.386,2.724 3.105,2.724c1.709,0 3.095,-1.219 3.095,-2.724c0,-1.513 -1.386,-2.732 -3.095,-2.732Z" style="fill:#bebebe;fill-rule:nonzero;"/><path id="human-male1" serif:id="human-male" d="M71.183,438.972c1.589,0 2.877,1.182 2.877,2.641c0,1.458 -1.288,2.641 -2.877,2.641c-1.589,0 -2.877,-1.183 -2.877,-2.641c0,-1.459 1.288,-2.641 2.877,-2.641Zm-2.158,6.603l4.316,0c1.589,0 2.877,1.182 2.877,2.641l0,7.263l-2.158,0l0,9.905l-5.754,0l0,-9.905l-2.158,0l0,-7.263c0,-1.459 1.288,-2.641 2.877,-2.641Z" style="fill:#bebebe;fill-rule:nonzero;"/><text x="33.631px" y="481.605px" style="font-family:'OpenSans-Bold', 'Open Sans', sans-serif;font-weight:700;font-size:13.973px;fill:#bebebe;">T<tspan x="41.285px 50.163px 59.24px " y="481.605px 481.605px 481.605px ">eam</tspan></text></g><g><g><g><text x="118.813px" y="464.761px" style="font-family:'OpenSans-Bold', 'Open Sans', sans-serif;font-weight:700;font-size:13.776px;fill:#bebebe;">R<tspan x="127.041px 134.404px 142.291px 150.482px 154.285px 159.695px 167.058px 179.296px 186.659px 194.85px 200.26px " y="464.761px 464.761px 464.761px 464.761px 464.761px 464.761px 464.761px 464.761px 464.761px 464.761px 464.761px ">equirements</tspan></text><path id="_119-user-tie" serif:id="119-user-tie" d="M154.403,411.355c0,-5.251 3.85,-9.507 8.601,-9.507c4.75,0 8.6,4.256 8.6,9.507c0,5.25 -3.85,9.506 -8.6,9.506c-4.751,0 -8.601,-4.256 -8.601,-9.506Zm20.07,12.674l-1.585,0l-8.918,20.014l3.334,-18.429l-4.3,-4.753l-4.301,4.753l3.334,18.429l-8.918,-20.014l-1.588,0c-5.731,0 -5.731,4.259 -5.731,9.507l0,15.843l34.401,0l0,-15.843c0,-5.248 0,-9.507 -5.731,-9.507l0.003,0Z" style="fill:#bebebe;fill-rule:nonzero;"/></g></g><path d="M190.677,400.022c0.091,-4.648 -4.53,-8.514 -10.312,-8.627c-5.783,-0.113 -10.55,3.568 -10.64,8.216c-0.054,2.747 1.563,5.353 4.331,6.984l-1.434,5.709l4.707,-4.407c0.881,0.208 1.792,0.323 2.709,0.34c5.782,0.114 10.549,-3.568 10.639,-8.215Z" style="fill:#bebebe;"/><path id="check-circle" d="M180.201,395.519c2.458,0 4.451,2.003 4.451,4.472c0,2.47 -1.993,4.472 -4.451,4.472c-2.458,0 -4.451,-2.002 -4.451,-4.472c0,-2.469 1.993,-4.472 4.451,-4.472Zm-0.445,6.486l3.115,-3.131l-0.629,-0.632l-2.486,2.498l-1.374,-1.38l-0.629,0.632l2.003,2.013Z" style="fill:#bebebe;fill-rule:nonzero;"/></g><g><text x="446.671px" y="438.013px" style="font-family:'OpenSans-Bold', 'Open Sans', sans-serif;font-weight:700;font-size:11.783px;fill:#bebebe;">I<tspan x="450.464px 461.715px 468.966px 472.462px 479.232px 490.483px 497.252px 504.783px 509.756px 516.677px 521.651px 525.147px 532.241px " y="438.013px 438.013px 438.013px 438.013px 438.013px 438.013px 438.013px 438.013px 438.013px 438.013px 438.013px 438.013px 438.013px ">mplementation</tspan></text><path id="widgets" d="M463.78,368.24l23.94,0l0,13.366l16.929,-17.409l16.928,17.409l-16.928,17.409l12.997,0l0,24.62l-23.941,0l0,-24.62l10.944,0l-16.929,-17.409l0,11.254l-23.94,0l0,-24.62Zm0,30.775l23.94,0l0,24.62l-23.94,0l0,-24.62Z" style="fill:#bebebe;fill-rule:nonzero;"/></g><g><text x="591.861px" y="412.494px" style="font-family:'OpenSans-Bold', 'Open Sans', sans-serif;font-weight:700;font-size:12.902px;fill:#bebebe;">T<tspan x="598.473px 606.144px " y="412.494px 412.494px ">es</tspan>ti<tspan x="622.196px " y="412.494px ">n</tspan>g</text><path id="umbrella" d="M617.246,368.336l0,19.714c0,4.724 -4.001,8.7 -8.755,8.7c-4.754,0 -8.755,-3.976 -8.755,-8.7c0,-1.19 0.991,-2.175 2.188,-2.175c1.198,0 2.189,0.985 2.189,2.175c0,2.277 2.086,4.35 4.378,4.35c2.292,0 4.378,-2.073 4.378,-4.35l0,-19.714c0.717,-0.237 1.435,-0.374 2.188,-0.374c0.753,0 1.471,0.137 2.189,0.374Zm26.266,0.916c0,0.579 -0.512,1.088 -1.094,1.088c-0.309,0 -0.548,-0.137 -0.786,-0.34c-1.983,-1.835 -3.831,-3.125 -6.669,-3.125c-3.249,0 -6.055,2.005 -7.9,4.555c-0.409,0.578 -0.718,1.189 -1.094,1.766c-0.239,0.374 -0.513,0.578 -0.959,0.578c-0.479,0 -0.753,-0.204 -0.992,-0.578c-0.376,-0.579 -0.685,-1.19 -1.094,-1.766c-1.847,-2.55 -4.616,-4.555 -7.867,-4.555c-3.25,0 -6.019,2.005 -7.866,4.555c-0.41,0.578 -0.718,1.189 -1.095,1.766c-0.238,0.374 -0.512,0.578 -0.991,0.578c-0.445,0 -0.718,-0.204 -0.959,-0.578c-0.376,-0.579 -0.685,-1.19 -1.094,-1.766c-1.848,-2.55 -4.652,-4.555 -7.9,-4.555c-2.839,0 -4.686,1.292 -6.669,3.125c-0.239,0.205 -0.479,0.34 -0.786,0.34c-0.582,0 -1.094,-0.509 -1.094,-1.088c0,-0.102 0,-0.169 0.035,-0.237c3.145,-12.846 15.63,-20.12 28.419,-20.12c12.722,0 25.343,7.274 28.42,20.12c0.035,0.068 0.035,0.137 0.035,0.237Zm-26.266,-24.707l0,3.33c-0.718,-0.035 -1.471,-0.068 -2.189,-0.068c-0.718,0 -1.471,0.035 -2.188,0.068l0,-3.33c0,-1.19 0.991,-2.175 2.188,-2.175c1.198,0 2.189,0.985 2.189,2.175l0,0Z" style="fill:#bebebe;fill-rule:nonzero;"/><path id="times-circle" d="M589.81,350.684c0,-0.142 -0.059,-0.276 -0.16,-0.376l-1.524,-1.514l1.524,-1.514c0.1,-0.1 0.16,-0.235 0.16,-0.377c0,-0.141 -0.059,-0.284 -0.16,-0.384l-0.758,-0.753c-0.101,-0.1 -0.244,-0.159 -0.387,-0.159c-0.143,0 -0.278,0.058 -0.379,0.159l-1.523,1.514l-1.524,-1.514c-0.101,-0.1 -0.236,-0.159 -0.379,-0.159c-0.142,0 -0.286,0.058 -0.387,0.159l-0.757,0.753c-0.101,0.1 -0.16,0.242 -0.16,0.384c0,0.143 0.058,0.277 0.16,0.377l1.523,1.514l-1.523,1.514c-0.101,0.1 -0.16,0.234 -0.16,0.376c0,0.142 0.058,0.284 0.16,0.385l0.757,0.753c0.101,0.1 0.244,0.159 0.387,0.159c0.144,0 0.278,-0.059 0.379,-0.159l1.524,-1.514l1.523,1.514c0.101,0.1 0.236,0.159 0.379,0.159c0.143,0 0.286,-0.059 0.387,-0.159l0.758,-0.753c0.1,-0.1 0.16,-0.242 0.16,-0.385Zm3.257,-1.89c0,3.547 -2.895,6.424 -6.464,6.424c-3.569,0 -6.465,-2.877 -6.465,-6.424c0,-3.547 2.896,-6.424 6.465,-6.424c3.569,0 6.464,2.877 6.464,6.424Z" style="fill:#bebebe;fill-rule:nonzero;"/><path id="times-circle1" serif:id="times-circle" d="M573.547,369.116c-0.087,-0.113 -0.216,-0.184 -0.357,-0.202l-2.137,-0.277l0.279,-2.123c0.019,-0.14 -0.017,-0.283 -0.104,-0.395c-0.087,-0.113 -0.221,-0.19 -0.363,-0.209l-1.062,-0.137c-0.141,-0.019 -0.291,0.021 -0.405,0.108c-0.113,0.087 -0.184,0.215 -0.202,0.356l-0.279,2.123l-2.137,-0.277c-0.141,-0.019 -0.284,0.017 -0.397,0.103c-0.114,0.087 -0.191,0.22 -0.21,0.361l-0.139,1.055c-0.018,0.141 0.022,0.29 0.11,0.402c0.087,0.113 0.216,0.184 0.358,0.202l2.136,0.277l-0.279,2.123c-0.018,0.14 0.017,0.283 0.104,0.395c0.087,0.113 0.221,0.19 0.363,0.208l1.062,0.138c0.142,0.019 0.291,-0.022 0.405,-0.108c0.113,-0.087 0.184,-0.215 0.203,-0.356l0.278,-2.123l2.137,0.277c0.141,0.019 0.284,-0.017 0.398,-0.103c0.113,-0.087 0.191,-0.22 0.209,-0.361l0.139,-1.055c0.018,-0.141 -0.022,-0.29 -0.11,-0.402Zm1.423,-3.473c2.176,2.812 1.646,6.847 -1.183,9.009c-2.829,2.163 -6.89,1.636 -9.066,-1.176c-2.176,-2.811 -1.646,-6.846 1.184,-9.008c2.829,-2.163 6.889,-1.636 9.065,1.175Z" style="fill:#bebebe;fill-rule:nonzero;"/><path id="times-circle2" serif:id="times-circle" d="M649.433,350.457c0.05,-0.133 0.043,-0.279 -0.016,-0.408l-0.888,-1.951l1.963,-0.882c0.13,-0.059 0.233,-0.164 0.283,-0.296c0.051,-0.133 0.046,-0.287 -0.013,-0.417l-0.441,-0.97c-0.059,-0.129 -0.172,-0.234 -0.306,-0.284c-0.134,-0.051 -0.281,-0.043 -0.411,0.016l-1.963,0.882l-0.888,-1.951c-0.059,-0.129 -0.164,-0.231 -0.298,-0.281c-0.134,-0.05 -0.288,-0.046 -0.419,0.013l-0.976,0.438c-0.13,0.059 -0.236,0.171 -0.286,0.304c-0.051,0.133 -0.043,0.279 0.016,0.408l0.888,1.951l-1.963,0.883c-0.13,0.058 -0.233,0.163 -0.284,0.296c-0.05,0.132 -0.046,0.286 0.013,0.416l0.442,0.97c0.058,0.129 0.172,0.234 0.306,0.284c0.134,0.051 0.28,0.043 0.41,-0.015l1.964,-0.883l0.887,1.951c0.059,0.129 0.165,0.232 0.298,0.282c0.134,0.05 0.289,0.045 0.419,-0.013l0.976,-0.439c0.13,-0.058 0.236,-0.171 0.287,-0.304Zm3.719,-0.626c-1.259,3.318 -4.991,4.995 -8.33,3.744c-3.34,-1.252 -5.027,-4.96 -3.768,-8.278c1.26,-3.319 4.991,-4.996 8.33,-3.744c3.34,1.251 5.027,4.959 3.768,8.278Z" style="fill:#bebebe;fill-rule:nonzero;"/><path id="times-circle3" serif:id="times-circle" d="M604.36,341.524c0.141,-0.021 0.266,-0.098 0.351,-0.212l1.281,-1.721l1.732,1.274c0.115,0.084 0.257,0.122 0.398,0.101c0.142,-0.021 0.275,-0.099 0.36,-0.214l0.637,-0.855c0.085,-0.114 0.122,-0.264 0.101,-0.405c-0.021,-0.14 -0.099,-0.264 -0.214,-0.348l-1.732,-1.274l1.282,-1.721c0.085,-0.114 0.124,-0.256 0.103,-0.396c-0.021,-0.14 -0.101,-0.272 -0.216,-0.357l-0.861,-0.633c-0.114,-0.085 -0.265,-0.122 -0.406,-0.101c-0.142,0.021 -0.267,0.099 -0.351,0.213l-1.282,1.721l-1.732,-1.274c-0.114,-0.084 -0.257,-0.123 -0.398,-0.102c-0.141,0.021 -0.274,0.1 -0.36,0.214l-0.637,0.856c-0.085,0.114 -0.122,0.263 -0.101,0.404c0.021,0.141 0.099,0.265 0.214,0.349l1.732,1.274l-1.282,1.721c-0.085,0.113 -0.124,0.255 -0.103,0.395c0.022,0.141 0.101,0.273 0.216,0.358l0.861,0.633c0.114,0.084 0.265,0.121 0.407,0.1Zm2.362,2.923c-3.53,0.524 -6.821,-1.898 -7.348,-5.406c-0.527,-3.507 1.909,-6.778 5.439,-7.302c3.53,-0.523 6.822,1.898 7.348,5.406c0.527,3.508 -1.909,6.779 -5.439,7.302Z" style="fill:#bebebe;fill-rule:nonzero;"/></g><g><text x="696.995px" y="433.844px" style="font-family:'OpenSans-Bold', 'Open Sans', sans-serif;font-weight:700;font-size:13.28px;fill:#bebebe;">Pr<tspan x="710.992px 719.152px 727.492px 736.153px " y="433.844px 433.844px 433.844px 433.844px ">oduc</tspan>t</text><path id="trophy" d="M709.515,389.509c-1.537,-3.392 -2.708,-7.892 -2.708,-13.682l-9.369,0l0,3.54c0,3.614 4.867,8.629 12.077,10.142Zm39.452,-10.142l0,-3.54l-9.369,0c0,5.79 -1.171,10.288 -2.708,13.682c7.21,-1.513 12.077,-6.528 12.077,-10.142Zm4.684,-4.72l0,4.72c0,7.007 -8.418,14.751 -19.836,15.303c-1.464,1.881 -2.818,2.988 -3.476,3.502c-1.939,1.77 -2.452,3.614 -2.452,5.974c0,2.36 1.171,4.72 4.684,4.72c3.514,0 7.027,2.36 7.027,5.9l0,2.36c0,0.663 -0.513,1.18 -1.171,1.18l-30.449,0c-0.658,0 -1.171,-0.517 -1.171,-1.18l0,-2.36c0,-3.54 3.513,-5.9 7.027,-5.9c3.513,0 4.684,-2.36 4.684,-4.72c0,-2.36 -0.513,-4.204 -2.452,-5.974c-0.658,-0.516 -2.012,-1.623 -3.476,-3.502c-11.418,-0.552 -19.836,-8.298 -19.836,-15.303l0,-4.72c0,-1.954 1.574,-3.54 3.513,-3.54l10.54,0l0,-3.54c0,-3.245 2.635,-5.9 5.856,-5.9l21.079,0c3.221,0 5.856,2.655 5.856,5.9l0,3.54l10.54,0c1.939,0 3.513,1.586 3.513,3.54l0,0Z" style="fill:#bebebe;fill-rule:nonzero;"/></g><path d="M170.416,559.555c0,0 20.433,-29.045 69.471,-38.58" style="fill:none;"/><g><text x="285.269px" y="484.115px" style="font-family:'OpenSans-Bold', 'Open Sans', sans-serif;font-weight:700;font-size:19.017px;fill:#174db6;">System Design</text><path id="android-studio" d="M346.045,367.422l8.339,0l0,8.832l2.085,0c3.454,0 6.254,2.966 6.254,6.625l0,15.456l-1.825,1.933l6.844,12.557c4.622,-4.808 7.489,-11.503 7.489,-18.906l8.339,0c0,10.685 -4.479,20.263 -11.557,26.741l13.083,24.001l0.558,9.857l-7.78,-5.441l-12.816,-23.512c-4.47,2.357 -9.511,3.682 -14.843,3.682c-5.333,0 -10.373,-1.325 -14.843,-3.682l-12.817,23.512l-7.78,5.441l0.559,-9.857l24.198,-44.393l-1.825,-1.933l0,-15.456c0,-3.659 2.8,-6.625 6.254,-6.625l2.084,0l0,-8.832Zm-6.492,50.473c3.234,1.616 6.848,2.52 10.662,2.52c3.813,0 7.428,-0.904 10.662,-2.52l-6.084,-11.161l-0.031,0c-2.567,2.72 -6.527,2.72 -9.095,0l-0.031,0l-6.083,11.161Zm10.662,-32.808c-2.303,0 -4.17,1.977 -4.17,4.416c0,2.439 1.867,4.416 4.17,4.416c2.303,0 4.169,-1.977 4.169,-4.416c0,-2.439 -1.866,-4.416 -4.169,-4.416Z" style="fill:#174db6;fill-rule:nonzero;"/><path id="radio-handheld" d="M346.091,432.48c-0.921,0 -1.662,0.741 -1.662,1.662c0,9.419 0,18.839 0,28.258c0,1.842 1.482,3.325 3.324,3.325l8.312,0c1.841,0 3.324,-1.483 3.324,-3.325l0,-18.284c0,-1.842 -1.483,-3.325 -3.324,-3.325l-8.312,0l0,-6.649c0,-0.921 -0.741,-1.662 -1.662,-1.662Zm1.662,11.636l8.312,0l0,6.649l-8.312,0l0,-6.649Z" style="fill:#ff9800;fill-rule:nonzero;"/></g><path d="M-2.167,529.225c0,0 137.968,-71.883 253.59,-39.912c37.637,10.407 104.143,56.302 177.231,12.3c142.256,-85.641 344.754,-108.452 390.809,74.387l-819.463,0l-2.167,-46.775Z" style="fill:#174db6;"/></g></svg>