<?xml version="1.0" encoding="UTF-8" standalone="no"?>
<!DOCTYPE svg PUBLIC "-//W3C//DTD SVG 1.1//EN" "http://www.w3.org/Graphics/SVG/1.1/DTD/svg11.dtd">
<!-- Generated by Microsoft Visio, SVG Export sequence-d.svg Page-1 -->
<svg xmlns="http://www.w3.org/2000/svg" xmlns:xlink="http://www.w3.org/1999/xlink" xmlns:ev="http://www.w3.org/2001/xml-events"
		xmlns:v="http://schemas.microsoft.com/visio/2003/SVGExtensions/" width="11in" height="8.5in" viewBox="0 0 792 612"
		xml:space="preserve" color-interpolation-filters="sRGB" class="st11">
	<v:documentProperties v:langID="1033" v:viewMarkup="false">
		<v:userDefs>
			<v:ud v:nameU="msvNoAutoConnect" v:prompt="" v:val="VT0(1):26"/>
		</v:userDefs>
	</v:documentProperties>

	<style type="text/css">
	<![CDATA[
		.st1 {fill:#73ae42;stroke:#6ca43d;stroke-linecap:round;stroke-linejoin:round;stroke-width:0.5}
		.st2 {fill:#5b9bd5;stroke:#ffffff;stroke-linecap:round;stroke-linejoin:round;stroke-width:0.5}
		.st3 {stroke:#5592c9;stroke-dasharray:3.5,2.5;stroke-linecap:round;stroke-linejoin:round;stroke-width:0.5}
		.st4 {fill:#ffffff;font-family:Calibri;font-size:1.00001em;font-weight:bold}
		.st5 {font-size:1em}
		.st6 {marker-end:url(#mrkr4-37);stroke:#6ca43d;stroke-linecap:round;stroke-linejoin:round;stroke-width:0.5}
		.st7 {fill:#6ca43d;fill-opacity:1;stroke:#6ca43d;stroke-opacity:1;stroke-width:0.13368983957219}
		.st8 {fill:#ffffff;stroke:none;stroke-linecap:butt;stroke-width:7.2}
		.st9 {fill:#53802e;font-family:Calibri;font-size:0.666664em}
		.st10 {fill:#ffffff;stroke:none;stroke-linecap:butt}
		.st11 {fill:none;fill-rule:evenodd;font-size:12px;overflow:visible;stroke-linecap:square;stroke-miterlimit:3}
	]]>
	</style>

	<defs id="Markers">
		<g id="lend4">
			<path d="M 2 1 L 0 0 L 2 -1 L 2 1 " style="stroke:none"/>
		</g>
		<marker id="mrkr4-37" class="st7" v:arrowType="4" v:arrowSize="3" v:setback="14.96" refX="-14.96" orient="auto"
				markerUnits="strokeWidth" overflow="visible">
			<use xlink:href="#lend4" transform="scale(-7.48,-7.48) "/>
		</marker>
	</defs>
	<g v:mID="0" v:index="1" v:groupContext="foregroundPage">
		<v:userDefs>
			<v:ud v:nameU="msvThemeOrder" v:val="VT0(0):26"/>
		</v:userDefs>
		<title>Page-1</title>
		<v:pageProperties v:drawingScale="1" v:pageScale="1" v:drawingUnits="0" v:shadowOffsetX="9" v:shadowOffsetY="-9"/>
		<v:layer v:name="Connector" v:index="0"/>
		<g id="shape1-1" v:mID="1" v:groupContext="shape" transform="translate(-537.75,256.5) rotate(-90)">
			<title>Activation</title>
			<v:userDefs>
				<v:ud v:nameU="visVersion" v:prompt="" v:val="VT0(15):26"/>
			</v:userDefs>
			<rect x="0" y="603" width="154.35" height="9" class="st1"/>
		</g>
		<g id="group2-3" transform="translate(40.5,-527.4)" v:mID="2" v:groupContext="group">
			<v:userDefs>
				<v:ud v:nameU="visVersion" v:prompt="" v:val="VT0(15):26"/>
				<v:ud v:nameU="ShowActor" v:prompt="" v:val="VT0(1):5"/>
				<v:ud v:nameU="ShowDestruction" v:prompt="" v:val="VT0(0):5"/>
			</v:userDefs>
			<title>Actor lifeline</title>
			<desc>Publisher</desc>
			<g id="shape3-4" v:mID="3" v:groupContext="shape" transform="translate(6,0)">
				<title>Sheet.3</title>
				<rect x="0" y="586.8" width="54" height="25.2" class="st2"/>
			</g>
			<g id="shape4-6" v:mID="4" v:groupContext="shape" transform="translate(20.25,-28.8)">
				<title>Sheet.4</title>
				<path d="M3.6 612 L3.6 594 L3.6 601.2 L0 601.2 L0 586.8 L1.8 585 L16.2 585 L18 586.8 L18 601.2 L14.4 601.2 L14.4
							 594 L14.4 612 L9 612 L9 597.6 L9 612 L3.6 612 ZM12.6 579.6 A3.6 3.6 -180 1 0 5.4 579.6 A3.6 3.6 -180
							 1 0 12.6 579.6 Z" class="st2"/>
			</g>
			<g id="shape5-8" v:mID="5" v:groupContext="shape" transform="translate(19.5,279.9)">
				<title>Sheet.5</title>
			</g>
			<g id="shape6-10" v:mID="6" v:groupContext="shape" transform="translate(641.25,612) rotate(90)">
				<title>Sheet.6</title>
				<path d="M0 612 L261.9 612" class="st3"/>
			</g>
			<g id="shape2-13" v:mID="2" v:groupContext="groupContent">
				<v:textBlock v:margins="rect(4,4,4,4)"/>
				<v:textRect cx="29.25" cy="599.4" width="58.5" height="25.2"/>
				<rect x="0" y="586.8" width="58.5" height="25.2" class="st2"/>
				<text x="5.9" y="603" class="st4" v:langID="1033"><v:paragraph v:horizAlign="1"/><v:tabList/>Publisher</text>			</g>
		</g>
		<g id="group7-16" transform="translate(216,-527.4)" v:mID="7" v:groupContext="group">
			<v:userDefs>
				<v:ud v:nameU="visVersion" v:prompt="" v:val="VT0(15):26"/>
				<v:ud v:nameU="ShowActor" v:prompt="" v:val="VT0(0):5"/>
				<v:ud v:nameU="ShowDestruction" v:prompt="" v:val="VT0(0):5"/>
			</v:userDefs>
			<title>Object lifeline</title>
			<desc>Track Creator</desc>
			<g id="shape8-17" v:mID="8" v:groupContext="shape">
				<title>Sheet.8</title>
				<rect x="0" y="586.8" width="54" height="25.2" class="st2"/>
			</g>
			<g id="shape9-19" v:mID="9" v:groupContext="shape" transform="translate(18,-28.8)">
				<title>Sheet.9</title>
				<path d="M9 612 a0 0 0 1 1 0 0 a0 0 0 1 1 0 0 Z" class="st2"/>
			</g>
			<g id="shape10-21" v:mID="10" v:groupContext="shape" transform="translate(18,280.8)">
				<title>Sheet.10</title>
			</g>
			<g id="shape11-23" v:mID="11" v:groupContext="shape" transform="translate(639,612) rotate(90)">
				<title>Sheet.11</title>
				<path d="M0 612 L262.8 612" class="st3"/>
			</g>
			<g id="shape7-26" v:mID="7" v:groupContext="groupContent">
				<v:textBlock v:margins="rect(4,4,4,4)"/>
				<v:textRect cx="27" cy="599.4" width="54" height="25.2"/>
				<rect x="0" y="586.8" width="54" height="25.2" class="st2"/>
				<text x="13.54" y="595.8" class="st4" v:langID="1033"><v:paragraph v:horizAlign="1"/><v:tabList/>Track <tspan
							x="8.27" dy="1.2em" class="st5">Creator</tspan></text>			</g>
		</g>
		<g id="shape12-30" v:mID="12" v:groupContext="shape" transform="translate(-364.5,138.6) rotate(-90)">
			<title>Activation.12</title>
			<v:userDefs>
				<v:ud v:nameU="visVersion" v:prompt="" v:val="VT0(15):26"/>
			</v:userDefs>
			<rect x="0" y="603" width="36" height="9" class="st1"/>
		</g>
		<g id="shape14-32" v:mID="14" v:groupContext="shape" v:layerMember="0" transform="translate(74.25,-500.625)">
			<title>Message</title>
			<desc>1 Fill track details</desc>
			<v:userDefs>
				<v:ud v:nameU="IsReturn" v:prompt="" v:val="VT0(0):5"/>
				<v:ud v:nameU="IsAsync" v:prompt="" v:val="VT0(0):26"/>
				<v:ud v:nameU="IsSelfMessage" v:prompt="" v:val="VT0(0):5"/>
				<v:ud v:nameU="visVersion" v:prompt="" v:val="VT0(15):26"/>
			</v:userDefs>
			<v:textBlock v:margins="rect(4,4,4,4)"/>
			<v:textRect cx="82.125" cy="621" width="66.3" height="17.6036"/>
			<path d="M0 620.77 L156.77 621.2" class="st6"/>
			<rect v:rectContext="textBkgnd" x="53.8853" y="616.2" width="56.4796" height="9.59985" class="st8"/>
			<text x="53.89" y="623.4" class="st9" v:langID="1033"><v:paragraph v:horizAlign="1"/><v:tabList/>1 Fill track details</text>		</g>
		<g id="group15-40" transform="translate(360,-527.4)" v:mID="15" v:groupContext="group">
			<v:userDefs>
				<v:ud v:nameU="visVersion" v:prompt="" v:val="VT0(15):26"/>
				<v:ud v:nameU="ShowActor" v:prompt="" v:val="VT0(1):5"/>
				<v:ud v:nameU="ShowDestruction" v:prompt="" v:val="VT0(0):5"/>
			</v:userDefs>
			<title>Actor lifeline.15</title>
			<desc>Follower</desc>
			<g id="shape16-41" v:mID="16" v:groupContext="shape">
				<title>Sheet.16</title>
				<rect x="0" y="586.8" width="54" height="25.2" class="st2"/>
			</g>
			<g id="shape17-43" v:mID="17" v:groupContext="shape" transform="translate(18,-28.8)">
				<title>Sheet.17</title>
				<path d="M3.6 612 L3.6 594 L3.6 601.2 L0 601.2 L0 586.8 L1.8 585 L16.2 585 L18 586.8 L18 601.2 L14.4 601.2 L14.4
							 594 L14.4 612 L9 612 L9 597.6 L9 612 L3.6 612 ZM12.6 579.6 A3.6 3.6 -180 1 0 5.4 579.6 A3.6 3.6 -180
							 1 0 12.6 579.6 Z" class="st2"/>
			</g>
			<g id="shape18-45" v:mID="18" v:groupContext="shape" transform="translate(18,280.8)">
				<title>Sheet.18</title>
			</g>
			<g id="shape19-47" v:mID="19" v:groupContext="shape" transform="translate(639,612) rotate(90)">
				<title>Sheet.19</title>
				<path d="M0 612 L262.8 612" class="st3"/>
			</g>
			<g id="shape15-50" v:mID="15" v:groupContext="groupContent">
				<v:textBlock v:margins="rect(4,4,4,4)"/>
				<v:textRect cx="27" cy="599.4" width="54" height="25.2"/>
				<rect x="0" y="586.8" width="54" height="25.2" class="st2"/>
				<text x="5.22" y="603" class="st4" v:langID="1033"><v:paragraph v:horizAlign="1"/><v:tabList/>Follower</text>			</g>
		</g>
		<g id="shape20-53" v:mID="20" v:groupContext="shape" v:layerMember="0" transform="translate(247.5,-482.4)">
			<title>Message.20</title>
			<desc>2 Publish Route</desc>
			<v:userDefs>
				<v:ud v:nameU="IsReturn" v:prompt="" v:val="VT0(0):5"/>
				<v:ud v:nameU="IsAsync" v:prompt="" v:val="VT0(0):26"/>
				<v:ud v:nameU="IsSelfMessage" v:prompt="" v:val="VT0(0):5"/>
				<v:ud v:nameU="visVersion" v:prompt="" v:val="VT0(15):26"/>
			</v:userDefs>
			<v:textBlock v:margins="rect(4,4,4,4)"/>
			<v:textRect cx="69.75" cy="603" width="60.46" height="17.6036"/>
			<path d="M0 603 L132.02 603" class="st6"/>
			<rect v:rectContext="textBkgnd" x="44.4301" y="598.2" width="50.6401" height="9.59985" class="st8"/>
			<text x="44.43" y="605.4" class="st9" v:langID="1033"><v:paragraph v:horizAlign="1"/><v:tabList/>2 Publish Route</text>		</g>
		<g id="shape21-60" v:mID="21" v:groupContext="shape" transform="translate(-220.5,138.6) rotate(-90)">
			<title>Activation.21</title>
			<v:userDefs>
				<v:ud v:nameU="visVersion" v:prompt="" v:val="VT0(15):26"/>
			</v:userDefs>
			<rect x="0" y="603" width="36" height="9" class="st1"/>
		</g>
		<g id="group23-62" transform="translate(477,-527.4)" v:mID="23" v:groupContext="group">
			<v:userDefs>
				<v:ud v:nameU="visVersion" v:prompt="" v:val="VT0(15):26"/>
				<v:ud v:nameU="ShowActor" v:prompt="" v:val="VT0(0):5"/>
				<v:ud v:nameU="ShowDestruction" v:prompt="" v:val="VT0(0):5"/>
			</v:userDefs>
			<title>Object lifeline.23</title>
			<desc>Display</desc>
			<g id="shape24-63" v:mID="24" v:groupContext="shape">
				<title>Sheet.24</title>
				<rect x="0" y="586.8" width="54" height="25.2" class="st2"/>
			</g>
			<g id="shape25-65" v:mID="25" v:groupContext="shape" transform="translate(18,-28.8)">
				<title>Sheet.25</title>
				<path d="M9 612 a0 0 0 1 1 0 0 a0 0 0 1 1 0 0 Z" class="st2"/>
			</g>
			<g id="shape26-67" v:mID="26" v:groupContext="shape" transform="translate(18,280.8)">
				<title>Sheet.26</title>
			</g>
			<g id="shape27-69" v:mID="27" v:groupContext="shape" transform="translate(639,612) rotate(90)">
				<title>Sheet.27</title>
				<path d="M0 612 L262.8 612" class="st3"/>
			</g>
			<g id="shape23-72" v:mID="23" v:groupContext="groupContent">
				<v:textBlock v:margins="rect(4,4,4,4)"/>
				<v:textRect cx="27" cy="599.4" width="54" height="25.2"/>
				<rect x="0" y="586.8" width="54" height="25.2" class="st2"/>
				<text x="8.85" y="603" class="st4" v:langID="1033"><v:paragraph v:horizAlign="1"/><v:tabList/>Display</text>			</g>
		</g>
		<g id="shape33-75" v:mID="33" v:groupContext="shape" transform="translate(-103.5,189) rotate(-90)">
			<title>Activation.33</title>
			<v:userDefs>
				<v:ud v:nameU="visVersion" v:prompt="" v:val="VT0(15):26"/>
			</v:userDefs>
			<rect x="0" y="603" width="32.4" height="9" class="st1"/>
		</g>
		<g id="shape34-77" v:mID="34" v:groupContext="shape" v:layerMember="0" transform="translate(499.5,-428.625)">
			<title>Message.34</title>
			<desc>3 Show list of followers &#38; track details</desc>
			<v:userDefs>
				<v:ud v:nameU="IsReturn" v:prompt="" v:val="VT0(0):5"/>
				<v:ud v:nameU="IsAsync" v:prompt="" v:val="VT0(0):26"/>
				<v:ud v:nameU="IsSelfMessage" v:prompt="" v:val="VT0(0):5"/>
				<v:ud v:nameU="visVersion" v:prompt="" v:val="VT0(15):26"/>
			</v:userDefs>
			<v:textBlock v:margins="rect(4,4,4,4)"/>
			<v:textRect cx="-212.625" cy="603" width="133.93" height="17.6036"/>
			<path d="M0 603.23 L-417.77 602.78" class="st6"/>
			<rect v:rectContext="textBkgnd" x="-274.681" y="598.2" width="124.112" height="9.59985" class="st10"/>
			<text x="-274.68" y="605.4" class="st9" v:langID="1033"><v:paragraph v:horizAlign="1"/><v:tabList/>3 Show list of followers &#38; track details</text>		</g>
		<g id="shape35-84" v:mID="35" v:groupContext="shape" v:layerMember="0" transform="translate(499.5,-374.625)">
			<title>Message.35</title>
			<desc>4 Prompt publisher to explain delay</desc>
			<v:userDefs>
				<v:ud v:nameU="IsReturn" v:prompt="" v:val="VT0(0):5"/>
				<v:ud v:nameU="IsAsync" v:prompt="" v:val="VT0(0):26"/>
				<v:ud v:nameU="IsSelfMessage" v:prompt="" v:val="VT0(0):5"/>
				<v:ud v:nameU="visVersion" v:prompt="" v:val="VT0(15):26"/>
			</v:userDefs>
			<v:textBlock v:margins="rect(4,4,4,4)"/>
			<v:textRect cx="-212.625" cy="603" width="125.44" height="17.6036"/>
			<path d="M0 603.23 L-417.77 602.78" class="st6"/>
			<rect v:rectContext="textBkgnd" x="-270.435" y="598.2" width="115.62" height="9.59985" class="st8"/>
			<text x="-270.43" y="605.4" class="st9" v:langID="1033"><v:paragraph v:horizAlign="1"/><v:tabList/>4 Prompt publisher to explain delay</text>		</g>
		<g id="shape36-91" v:mID="36" v:groupContext="shape" v:layerMember="0" transform="translate(499.5,-320.4)">
			<title>Message.36</title>
			<desc>5 Notify Follower of publisher&#39;s unresponsiveness</desc>
			<v:userDefs>
				<v:ud v:nameU="IsReturn" v:prompt="" v:val="VT0(0):5"/>
				<v:ud v:nameU="IsAsync" v:prompt="" v:val="VT0(0):26"/>
				<v:ud v:nameU="IsSelfMessage" v:prompt="" v:val="VT0(0):5"/>
				<v:ud v:nameU="visVersion" v:prompt="" v:val="VT0(15):26"/>
			</v:userDefs>
			<v:textBlock v:margins="rect(4,4,4,4)"/>
			<v:textRect cx="-54" cy="603" width="67.75" height="36.8035"/>
			<path d="M0 603 L-100.52 603" class="st6"/>
			<rect v:rectContext="textBkgnd" x="-82.9645" y="588.6" width="57.9293" height="28.7996" class="st8"/>
			<text x="-81.95" y="595.8" class="st9" v:langID="1033"><v:paragraph v:horizAlign="1"/><v:tabList/>5 Notify Follower <v:newlineChar/><tspan
						x="-75.87" dy="1.2em" class="st5">of publisher&#39;s <v:newlineChar/></tspan><tspan x="-82.96" dy="1.2em"
						class="st5">unresponsiveness</tspan></text>		</g>
		<g id="shape37-100" v:mID="37" v:groupContext="shape" transform="translate(-103.5,243) rotate(-90)">
			<title>Activation.37</title>
			<v:userDefs>
				<v:ud v:nameU="visVersion" v:prompt="" v:val="VT0(15):26"/>
			</v:userDefs>
			<rect x="0" y="603" width="32.4" height="9" class="st1"/>
		</g>
		<g id="shape38-102" v:mID="38" v:groupContext="shape" transform="translate(-103.5,300.6) rotate(-90)">
			<title>Activation.38</title>
			<v:userDefs>
				<v:ud v:nameU="visVersion" v:prompt="" v:val="VT0(15):26"/>
			</v:userDefs>
			<rect x="0" y="603" width="36" height="9" class="st1"/>
		</g>
		<g id="shape39-104" v:mID="39" v:groupContext="shape" transform="translate(-220.5,300.6) rotate(-90)">
			<title>Activation.39</title>
			<v:userDefs>
				<v:ud v:nameU="visVersion" v:prompt="" v:val="VT0(15):26"/>
			</v:userDefs>
			<rect x="0" y="603" width="36" height="9" class="st1"/>
		</g>
	</g>
</svg>
