<?xml version="1.0" encoding="UTF-8" standalone="no"?>
<!DOCTYPE svg PUBLIC "-//W3C//DTD SVG 1.1//EN" "http://www.w3.org/Graphics/SVG/1.1/DTD/svg11.dtd">
<!-- Generated by Microsoft Visio, SVG Export state-d.svg Page-1 -->
<svg xmlns="http://www.w3.org/2000/svg" xmlns:xlink="http://www.w3.org/1999/xlink" xmlns:ev="http://www.w3.org/2001/xml-events"
		xmlns:v="http://schemas.microsoft.com/visio/2003/SVGExtensions/" width="11in" height="16.5in" viewBox="0 0 792 1188"
		xml:space="preserve" color-interpolation-filters="sRGB" class="st9">
	<v:documentProperties v:langID="1033" v:viewMarkup="false">
		<v:userDefs>
			<v:ud v:nameU="msvNoAutoConnect" v:prompt="" v:val="VT0(0):26"/>
		</v:userDefs>
	</v:documentProperties>

	<style type="text/css">
	<![CDATA[
		.st1 {fill:#5b9bd5;stroke:#5b9bd5;stroke-linecap:round;stroke-linejoin:round;stroke-width:0.5}
		.st2 {fill:#bcd276;stroke:#ffffff;stroke-linecap:round;stroke-linejoin:round;stroke-width:0.5}
		.st3 {fill:#ffffff;font-family:Calibri;font-size:1.5em}
		.st4 {font-size:1em}
		.st5 {fill:#4271c6}
		.st6 {stroke:#4271c6;stroke-linecap:round;stroke-linejoin:round;stroke-width:0.5}
		.st7 {marker-end:url(#mrkr5-47);stroke:#6c7e21;stroke-linecap:round;stroke-linejoin:round;stroke-width:1}
		.st8 {fill:#6c7e21;fill-opacity:1;stroke:#6c7e21;stroke-opacity:1;stroke-width:0.28409090909091}
		.st9 {fill:none;fill-rule:evenodd;font-size:12px;overflow:visible;stroke-linecap:square;stroke-miterlimit:3}
	]]>
	</style>

	<defs id="Markers">
		<g id="lend5">
			<path d="M 2 1 L 0 0 L 1.98117 -0.993387 C 1.67173 -0.364515 1.67301 0.372641 1.98465 1.00043 " style="stroke:none"/>
		</g>
		<marker id="mrkr5-47" class="st8" v:arrowType="5" v:arrowSize="2" v:setback="6.16" refX="-6.16" orient="auto"
				markerUnits="strokeWidth" overflow="visible">
			<use xlink:href="#lend5" transform="scale(-3.52,-3.52) "/>
		</marker>
	</defs>
	<g v:mID="0" v:index="1" v:groupContext="foregroundPage">
		<v:userDefs>
			<v:ud v:nameU="msvThemeOrder" v:val="VT0(0):26"/>
			<v:ud v:nameU="visNavType" v:val="VT0(1):26"/>
		</v:userDefs>
		<title>Page-1</title>
		<v:pageProperties v:drawingScale="1" v:pageScale="1" v:drawingUnits="0" v:shadowOffsetX="9" v:shadowOffsetY="-9"/>
		<v:layer v:name="Connector" v:index="0"/>
		<g id="shape11-1" v:mID="11" v:groupContext="shape" transform="translate(396,1782) rotate(180)">
			<title>Initial state</title>
			<v:userDefs>
				<v:ud v:nameU="visVersion" v:prompt="" v:val="VT0(15):26"/>
				<v:ud v:nameU="visNavOrder" v:prompt="" v:val="VT0(1000):26"/>
			</v:userDefs>
			<ellipse cx="18" cy="1170" rx="18" ry="18" class="st1"/>
		</g>
		<g id="shape15-3" v:mID="15" v:groupContext="shape" transform="translate(324,-463.5)">
			<title>Rounded Rectangle</title>
			<desc>Track Creation</desc>
			<v:userDefs>
				<v:ud v:nameU="CTypeTopLeftSnip" v:prompt="" v:val="VT0(0):5"/>
				<v:ud v:nameU="CTypeTopRightSnip" v:prompt="" v:val="VT0(0):5"/>
				<v:ud v:nameU="CTypeBotLeftSnip" v:prompt="" v:val="VT0(0):5"/>
				<v:ud v:nameU="CTypeBotRightSnip" v:prompt="" v:val="VT0(0):5"/>
				<v:ud v:nameU="CornerLockHoriz" v:prompt="" v:val="VT0(1):5"/>
				<v:ud v:nameU="CornerLockVert" v:prompt="" v:val="VT0(1):5"/>
				<v:ud v:nameU="CornerLockDiag" v:prompt="" v:val="VT0(0):5"/>
				<v:ud v:nameU="TopLeftOffset" v:prompt="" v:val="VT0(0.15):1"/>
				<v:ud v:nameU="TopRightOffset" v:prompt="" v:val="VT0(0.15):1"/>
				<v:ud v:nameU="BotLeftOffset" v:prompt="" v:val="VT0(0.15):1"/>
				<v:ud v:nameU="BotRightOffset" v:prompt="" v:val="VT0(0.15):1"/>
				<v:ud v:nameU="visVersion" v:prompt="" v:val="VT0(15):26"/>
				<v:ud v:nameU="visNavOrder" v:prompt="" v:val="VT0(2000):26"/>
			</v:userDefs>
			<v:textBlock v:margins="rect(4,4,4,4)"/>
			<v:textRect cx="54" cy="1165.5" width="108" height="45"/>
			<path d="M10.8 1188 L97.2 1188 A10.7998 10.7998 -180 0 0 108 1177.2 L108 1153.8 A10.7998 10.7998 -180 0 0 97.2 1143 L10.8
						 1143 A10.7998 10.7998 -180 0 0 0 1153.8 L0 1177.2 A10.7998 10.7998 -180 0 0 10.8 1188 Z" class="st2"/>
			<text x="34.27" y="1160.1" class="st3" v:langID="1033"><v:paragraph v:horizAlign="1"/><v:tabList/>Track <tspan
						x="22.72" dy="1.2em" class="st4">Creation</tspan></text>		</g>
		<g id="shape16-7" v:mID="16" v:groupContext="shape" transform="translate(324,-369)">
			<title>Rounded Rectangle.16</title>
			<desc>Publish Tracking</desc>
			<v:userDefs>
				<v:ud v:nameU="CTypeTopLeftSnip" v:prompt="" v:val="VT0(0):5"/>
				<v:ud v:nameU="CTypeTopRightSnip" v:prompt="" v:val="VT0(0):5"/>
				<v:ud v:nameU="CTypeBotLeftSnip" v:prompt="" v:val="VT0(0):5"/>
				<v:ud v:nameU="CTypeBotRightSnip" v:prompt="" v:val="VT0(0):5"/>
				<v:ud v:nameU="CornerLockHoriz" v:prompt="" v:val="VT0(1):5"/>
				<v:ud v:nameU="CornerLockVert" v:prompt="" v:val="VT0(1):5"/>
				<v:ud v:nameU="CornerLockDiag" v:prompt="" v:val="VT0(0):5"/>
				<v:ud v:nameU="TopLeftOffset" v:prompt="" v:val="VT0(0.15):1"/>
				<v:ud v:nameU="TopRightOffset" v:prompt="" v:val="VT0(0.15):1"/>
				<v:ud v:nameU="BotLeftOffset" v:prompt="" v:val="VT0(0.15):1"/>
				<v:ud v:nameU="BotRightOffset" v:prompt="" v:val="VT0(0.15):1"/>
				<v:ud v:nameU="visVersion" v:prompt="" v:val="VT0(15):26"/>
				<v:ud v:nameU="visNavOrder" v:prompt="" v:val="VT0(3000):26"/>
			</v:userDefs>
			<v:textBlock v:margins="rect(4,4,4,4)"/>
			<v:textRect cx="54" cy="1165.5" width="108" height="45"/>
			<path d="M10.8 1188 L97.2 1188 A10.7998 10.7998 -180 0 0 108 1177.2 L108 1153.8 A10.7998 10.7998 -180 0 0 97.2 1143 L10.8
						 1143 A10.7998 10.7998 -180 0 0 0 1153.8 L0 1177.2 A10.7998 10.7998 -180 0 0 10.8 1188 Z" class="st2"/>
			<text x="27.51" y="1160.1" class="st3" v:langID="1033"><v:paragraph v:horizAlign="1"/><v:tabList/>Publish <tspan
						x="23.24" dy="1.2em" class="st4">Tracking</tspan></text>		</g>
		<g id="shape17-11" v:mID="17" v:groupContext="shape" transform="translate(585,-378)">
			<title>Rounded Rectangle.17</title>
			<desc>Abort</desc>
			<v:userDefs>
				<v:ud v:nameU="CTypeTopLeftSnip" v:prompt="" v:val="VT0(0):5"/>
				<v:ud v:nameU="CTypeTopRightSnip" v:prompt="" v:val="VT0(0):5"/>
				<v:ud v:nameU="CTypeBotLeftSnip" v:prompt="" v:val="VT0(0):5"/>
				<v:ud v:nameU="CTypeBotRightSnip" v:prompt="" v:val="VT0(0):5"/>
				<v:ud v:nameU="CornerLockHoriz" v:prompt="" v:val="VT0(1):5"/>
				<v:ud v:nameU="CornerLockVert" v:prompt="" v:val="VT0(1):5"/>
				<v:ud v:nameU="CornerLockDiag" v:prompt="" v:val="VT0(0):5"/>
				<v:ud v:nameU="TopLeftOffset" v:prompt="" v:val="VT0(0.15):1"/>
				<v:ud v:nameU="TopRightOffset" v:prompt="" v:val="VT0(0.15):1"/>
				<v:ud v:nameU="BotLeftOffset" v:prompt="" v:val="VT0(0.15):1"/>
				<v:ud v:nameU="BotRightOffset" v:prompt="" v:val="VT0(0.15):1"/>
				<v:ud v:nameU="visVersion" v:prompt="" v:val="VT0(15):26"/>
				<v:ud v:nameU="visNavOrder" v:prompt="" v:val="VT0(4000):26"/>
			</v:userDefs>
			<v:textBlock v:margins="rect(4,4,4,4)"/>
			<v:textRect cx="54" cy="1170" width="108" height="36"/>
			<path d="M10.8 1188 L97.2 1188 A10.7998 10.7998 -180 0 0 108 1177.2 L108 1162.8 A10.7998 10.7998 -180 0 0 97.2 1152 L10.8
						 1152 A10.7998 10.7998 -180 0 0 0 1162.8 L0 1177.2 A10.7998 10.7998 -180 0 0 10.8 1188 Z" class="st2"/>
			<text x="33.17" y="1175.4" class="st3" v:langID="1033"><v:paragraph v:horizAlign="1"/><v:tabList/>Abort</text>		</g>
		<g id="shape18-14" v:mID="18" v:groupContext="shape" transform="translate(324,-283.5)">
			<title>Rounded Rectangle.18</title>
			<desc>Delay</desc>
			<v:userDefs>
				<v:ud v:nameU="CTypeTopLeftSnip" v:prompt="" v:val="VT0(0):5"/>
				<v:ud v:nameU="CTypeTopRightSnip" v:prompt="" v:val="VT0(0):5"/>
				<v:ud v:nameU="CTypeBotLeftSnip" v:prompt="" v:val="VT0(0):5"/>
				<v:ud v:nameU="CTypeBotRightSnip" v:prompt="" v:val="VT0(0):5"/>
				<v:ud v:nameU="CornerLockHoriz" v:prompt="" v:val="VT0(1):5"/>
				<v:ud v:nameU="CornerLockVert" v:prompt="" v:val="VT0(1):5"/>
				<v:ud v:nameU="CornerLockDiag" v:prompt="" v:val="VT0(0):5"/>
				<v:ud v:nameU="TopLeftOffset" v:prompt="" v:val="VT0(0.15):1"/>
				<v:ud v:nameU="TopRightOffset" v:prompt="" v:val="VT0(0.15):1"/>
				<v:ud v:nameU="BotLeftOffset" v:prompt="" v:val="VT0(0.15):1"/>
				<v:ud v:nameU="BotRightOffset" v:prompt="" v:val="VT0(0.15):1"/>
				<v:ud v:nameU="visVersion" v:prompt="" v:val="VT0(15):26"/>
				<v:ud v:nameU="visNavOrder" v:prompt="" v:val="VT0(5000):26"/>
			</v:userDefs>
			<v:textBlock v:margins="rect(4,4,4,4)"/>
			<v:textRect cx="54" cy="1170" width="108" height="36"/>
			<path d="M10.8 1188 L97.2 1188 A10.7998 10.7998 -180 0 0 108 1177.2 L108 1162.8 A10.7998 10.7998 -180 0 0 97.2 1152 L10.8
						 1152 A10.7998 10.7998 -180 0 0 0 1162.8 L0 1177.2 A10.7998 10.7998 -180 0 0 10.8 1188 Z" class="st2"/>
			<text x="33.53" y="1175.4" class="st3" v:langID="1033"><v:paragraph v:horizAlign="1"/><v:tabList/>Delay</text>		</g>
		<g id="shape19-17" v:mID="19" v:groupContext="shape" transform="translate(99,-378)">
			<title>Rounded Rectangle.19</title>
			<desc>Arrive</desc>
			<v:userDefs>
				<v:ud v:nameU="CTypeTopLeftSnip" v:prompt="" v:val="VT0(0):5"/>
				<v:ud v:nameU="CTypeTopRightSnip" v:prompt="" v:val="VT0(0):5"/>
				<v:ud v:nameU="CTypeBotLeftSnip" v:prompt="" v:val="VT0(0):5"/>
				<v:ud v:nameU="CTypeBotRightSnip" v:prompt="" v:val="VT0(0):5"/>
				<v:ud v:nameU="CornerLockHoriz" v:prompt="" v:val="VT0(1):5"/>
				<v:ud v:nameU="CornerLockVert" v:prompt="" v:val="VT0(1):5"/>
				<v:ud v:nameU="CornerLockDiag" v:prompt="" v:val="VT0(0):5"/>
				<v:ud v:nameU="TopLeftOffset" v:prompt="" v:val="VT0(0.15):1"/>
				<v:ud v:nameU="TopRightOffset" v:prompt="" v:val="VT0(0.15):1"/>
				<v:ud v:nameU="BotLeftOffset" v:prompt="" v:val="VT0(0.15):1"/>
				<v:ud v:nameU="BotRightOffset" v:prompt="" v:val="VT0(0.15):1"/>
				<v:ud v:nameU="visVersion" v:prompt="" v:val="VT0(15):26"/>
				<v:ud v:nameU="visNavOrder" v:prompt="" v:val="VT0(6000):26"/>
			</v:userDefs>
			<v:textBlock v:margins="rect(4,4,4,4)"/>
			<v:textRect cx="54" cy="1170" width="108" height="36"/>
			<path d="M10.8 1188 L97.2 1188 A10.7998 10.7998 -180 0 0 108 1177.2 L108 1162.8 A10.7998 10.7998 -180 0 0 97.2 1152 L10.8
						 1152 A10.7998 10.7998 -180 0 0 0 1162.8 L0 1177.2 A10.7998 10.7998 -180 0 0 10.8 1188 Z" class="st2"/>
			<text x="31.91" y="1175.4" class="st3" v:langID="1033"><v:paragraph v:horizAlign="1"/><v:tabList/>Arrive</text>		</g>
		<g id="shape20-20" v:mID="20" v:groupContext="shape" transform="translate(135,-270)">
			<title>Final state</title>
			<v:userDefs>
				<v:ud v:nameU="visVersion" v:prompt="" v:val="VT0(15):26"/>
				<v:ud v:nameU="visNavOrder" v:prompt="" v:val="VT0(7000):26"/>
			</v:userDefs>
			<path d="M32.4 1170 A14.4 14.4 -180 1 0 3.6 1170 A14.4 14.4 -180 1 0 32.4 1170 Z" class="st5"/>
			<path d="M36 1170 A18 18 -180 1 0 0 1170 A18 18 -180 1 0 36 1170" class="st6"/>
			<path d="M32.4 1170 A14.4 14.4 -180 1 0 3.6 1170 A14.4 14.4 -180 1 0 32.4 1170" class="st6"/>
		</g>
		<g id="shape21-24" v:mID="21" v:groupContext="shape" transform="translate(279,-99)">
			<title>Final state.21</title>
			<v:userDefs>
				<v:ud v:nameU="visVersion" v:prompt="" v:val="VT0(15):26"/>
				<v:ud v:nameU="visNavOrder" v:prompt="" v:val="VT0(8000):26"/>
			</v:userDefs>
			<path d="M32.4 1170 A14.4 14.4 -180 1 0 3.6 1170 A14.4 14.4 -180 1 0 32.4 1170 Z" class="st5"/>
			<path d="M36 1170 A18 18 -180 1 0 0 1170 A18 18 -180 1 0 36 1170" class="st6"/>
			<path d="M32.4 1170 A14.4 14.4 -180 1 0 3.6 1170 A14.4 14.4 -180 1 0 32.4 1170" class="st6"/>
		</g>
		<g id="shape22-28" v:mID="22" v:groupContext="shape" transform="translate(243,-198)">
			<title>Rounded Rectangle.22</title>
			<desc>OK</desc>
			<v:userDefs>
				<v:ud v:nameU="CTypeTopLeftSnip" v:prompt="" v:val="VT0(0):5"/>
				<v:ud v:nameU="CTypeTopRightSnip" v:prompt="" v:val="VT0(0):5"/>
				<v:ud v:nameU="CTypeBotLeftSnip" v:prompt="" v:val="VT0(0):5"/>
				<v:ud v:nameU="CTypeBotRightSnip" v:prompt="" v:val="VT0(0):5"/>
				<v:ud v:nameU="CornerLockHoriz" v:prompt="" v:val="VT0(1):5"/>
				<v:ud v:nameU="CornerLockVert" v:prompt="" v:val="VT0(1):5"/>
				<v:ud v:nameU="CornerLockDiag" v:prompt="" v:val="VT0(0):5"/>
				<v:ud v:nameU="TopLeftOffset" v:prompt="" v:val="VT0(0.15):1"/>
				<v:ud v:nameU="TopRightOffset" v:prompt="" v:val="VT0(0.15):1"/>
				<v:ud v:nameU="BotLeftOffset" v:prompt="" v:val="VT0(0.15):1"/>
				<v:ud v:nameU="BotRightOffset" v:prompt="" v:val="VT0(0.15):1"/>
				<v:ud v:nameU="visVersion" v:prompt="" v:val="VT0(15):26"/>
				<v:ud v:nameU="visNavOrder" v:prompt="" v:val="VT0(9000):26"/>
			</v:userDefs>
			<v:textBlock v:margins="rect(4,4,4,4)"/>
			<v:textRect cx="54" cy="1170" width="108" height="36"/>
			<path d="M10.8 1188 L97.2 1188 A10.7998 10.7998 -180 0 0 108 1177.2 L108 1162.8 A10.7998 10.7998 -180 0 0 97.2 1152 L10.8
						 1152 A10.7998 10.7998 -180 0 0 0 1162.8 L0 1177.2 A10.7998 10.7998 -180 0 0 10.8 1188 Z" class="st2"/>
			<text x="43.37" y="1175.4" class="st3" v:langID="1033"><v:paragraph v:horizAlign="1"/><v:tabList/>OK</text>		</g>
		<g id="shape23-31" v:mID="23" v:groupContext="shape" transform="translate(441,-198)">
			<title>Rounded Rectangle.23</title>
			<desc>Problem</desc>
			<v:userDefs>
				<v:ud v:nameU="CTypeTopLeftSnip" v:prompt="" v:val="VT0(0):5"/>
				<v:ud v:nameU="CTypeTopRightSnip" v:prompt="" v:val="VT0(0):5"/>
				<v:ud v:nameU="CTypeBotLeftSnip" v:prompt="" v:val="VT0(0):5"/>
				<v:ud v:nameU="CTypeBotRightSnip" v:prompt="" v:val="VT0(0):5"/>
				<v:ud v:nameU="CornerLockHoriz" v:prompt="" v:val="VT0(1):5"/>
				<v:ud v:nameU="CornerLockVert" v:prompt="" v:val="VT0(1):5"/>
				<v:ud v:nameU="CornerLockDiag" v:prompt="" v:val="VT0(0):5"/>
				<v:ud v:nameU="TopLeftOffset" v:prompt="" v:val="VT0(0.15):1"/>
				<v:ud v:nameU="TopRightOffset" v:prompt="" v:val="VT0(0.15):1"/>
				<v:ud v:nameU="BotLeftOffset" v:prompt="" v:val="VT0(0.15):1"/>
				<v:ud v:nameU="BotRightOffset" v:prompt="" v:val="VT0(0.15):1"/>
				<v:ud v:nameU="visVersion" v:prompt="" v:val="VT0(15):26"/>
				<v:ud v:nameU="visNavOrder" v:prompt="" v:val="VT0(10000):26"/>
			</v:userDefs>
			<v:textBlock v:margins="rect(4,4,4,4)"/>
			<v:textRect cx="54" cy="1170" width="108" height="36"/>
			<path d="M10.8 1188 L97.2 1188 A10.7998 10.7998 -180 0 0 108 1177.2 L108 1162.8 A10.7998 10.7998 -180 0 0 97.2 1152 L10.8
						 1152 A10.7998 10.7998 -180 0 0 0 1162.8 L0 1177.2 A10.7998 10.7998 -180 0 0 10.8 1188 Z" class="st2"/>
			<text x="23.01" y="1175.4" class="st3" v:langID="1033"><v:paragraph v:horizAlign="1"/><v:tabList/>Problem</text>		</g>
		<g id="shape24-34" v:mID="24" v:groupContext="shape" transform="translate(441,-94.5)">
			<title>Rounded Rectangle.24</title>
			<desc>Notify Fllower</desc>
			<v:userDefs>
				<v:ud v:nameU="CTypeTopLeftSnip" v:prompt="" v:val="VT0(0):5"/>
				<v:ud v:nameU="CTypeTopRightSnip" v:prompt="" v:val="VT0(0):5"/>
				<v:ud v:nameU="CTypeBotLeftSnip" v:prompt="" v:val="VT0(0):5"/>
				<v:ud v:nameU="CTypeBotRightSnip" v:prompt="" v:val="VT0(0):5"/>
				<v:ud v:nameU="CornerLockHoriz" v:prompt="" v:val="VT0(1):5"/>
				<v:ud v:nameU="CornerLockVert" v:prompt="" v:val="VT0(1):5"/>
				<v:ud v:nameU="CornerLockDiag" v:prompt="" v:val="VT0(0):5"/>
				<v:ud v:nameU="TopLeftOffset" v:prompt="" v:val="VT0(0.15):1"/>
				<v:ud v:nameU="TopRightOffset" v:prompt="" v:val="VT0(0.15):1"/>
				<v:ud v:nameU="BotLeftOffset" v:prompt="" v:val="VT0(0.15):1"/>
				<v:ud v:nameU="BotRightOffset" v:prompt="" v:val="VT0(0.15):1"/>
				<v:ud v:nameU="visVersion" v:prompt="" v:val="VT0(15):26"/>
				<v:ud v:nameU="visNavOrder" v:prompt="" v:val="VT0(11000):26"/>
			</v:userDefs>
			<v:textBlock v:margins="rect(4,4,4,4)"/>
			<v:textRect cx="54" cy="1165.5" width="108" height="45"/>
			<path d="M10.8 1188 L97.2 1188 A10.7998 10.7998 -180 0 0 108 1177.2 L108 1153.8 A10.7998 10.7998 -180 0 0 97.2 1143 L10.8
						 1143 A10.7998 10.7998 -180 0 0 0 1153.8 L0 1177.2 A10.7998 10.7998 -180 0 0 10.8 1188 Z" class="st2"/>
			<text x="31.54" y="1160.1" class="st3" v:langID="1033"><v:paragraph v:horizAlign="1"/><v:tabList/>Notify <tspan
						x="26.94" dy="1.2em" class="st4">Fllower</tspan></text>		</g>
		<g id="shape25-38" v:mID="25" v:groupContext="shape" transform="translate(621,-297)">
			<title>Final state.25</title>
			<v:userDefs>
				<v:ud v:nameU="visVersion" v:prompt="" v:val="VT0(15):26"/>
				<v:ud v:nameU="visNavOrder" v:prompt="" v:val="VT0(12000):26"/>
			</v:userDefs>
			<path d="M32.4 1170 A14.4 14.4 -180 1 0 3.6 1170 A14.4 14.4 -180 1 0 32.4 1170 Z" class="st5"/>
			<path d="M36 1170 A18 18 -180 1 0 0 1170 A18 18 -180 1 0 36 1170" class="st6"/>
			<path d="M32.4 1170 A14.4 14.4 -180 1 0 3.6 1170 A14.4 14.4 -180 1 0 32.4 1170" class="st6"/>
		</g>
		<g id="shape31-42" v:mID="31" v:groupContext="shape" v:layerMember="0" transform="translate(387,-558)">
			<title>Dynamic connector.197</title>
			<v:userDefs>
				<v:ud v:nameU="visNavOrder" v:val="VT0(14000):26"/>
			</v:userDefs>
			<path d="M-9 1188 L-9 1231.34" class="st7"/>
		</g>
		<g id="shape32-48" v:mID="32" v:groupContext="shape" v:layerMember="0" transform="translate(324,-384.75)">
			<title>Dynamic connector.32</title>
			<v:userDefs>
				<v:ud v:nameU="visNavOrder" v:val="VT0(15000):26"/>
			</v:userDefs>
			<path d="M0 1181.25 L-36 1181.25 L-36 1176.75 L-110.84 1176.75" class="st7"/>
		</g>
		<g id="shape33-53" v:mID="33" v:groupContext="shape" v:layerMember="0" transform="translate(144,-378)">
			<title>Dynamic connector.33</title>
			<v:userDefs>
				<v:ud v:nameU="visNavOrder" v:val="VT0(16000):26"/>
			</v:userDefs>
			<path d="M9 1188 L9 1253.84" class="st7"/>
		</g>
		<g id="shape34-58" v:mID="34" v:groupContext="shape" v:layerMember="0" transform="translate(387,-463.5)">
			<title>Dynamic connector.34</title>
			<v:userDefs>
				<v:ud v:nameU="visNavOrder" v:val="VT0(17000):26"/>
			</v:userDefs>
			<path d="M-9 1188 L-9 1231.34" class="st7"/>
		</g>
		<g id="shape35-63" v:mID="35" v:groupContext="shape" v:layerMember="0" transform="translate(369,-369)">
			<title>Dynamic connector.35</title>
			<v:userDefs>
				<v:ud v:nameU="visNavOrder" v:val="VT0(18000):26"/>
			</v:userDefs>
			<path d="M9 1188 L9 1231.34" class="st7"/>
		</g>
		<g id="shape36-68" v:mID="36" v:groupContext="shape" v:layerMember="0" transform="translate(378,-283.5)">
			<title>Dynamic connector.36</title>
			<v:userDefs>
				<v:ud v:nameU="visNavOrder" v:val="VT0(19000):26"/>
			</v:userDefs>
			<path d="M0 1188 L0 1226.25 L117 1226.25 L117 1231.34" class="st7"/>
		</g>
		<g id="shape37-73" v:mID="37" v:groupContext="shape" v:layerMember="0" transform="translate(441,-108)">
			<title>Dynamic connector.37</title>
			<v:userDefs>
				<v:ud v:nameU="visNavOrder" v:val="VT0(20000):26"/>
			</v:userDefs>
			<path d="M0 1179 L-119.84 1179" class="st7"/>
		</g>
		<g id="shape38-78" v:mID="38" v:groupContext="shape" v:layerMember="0" transform="translate(378,-283.5)">
			<title>Dynamic connector.38</title>
			<v:userDefs>
				<v:ud v:nameU="visNavOrder" v:val="VT0(21000):26"/>
			</v:userDefs>
			<path d="M0 1188 L0 1224 L-81 1224 L-81 1231.34" class="st7"/>
		</g>
		<g id="shape39-83" v:mID="39" v:groupContext="shape" v:layerMember="0" transform="translate(432,-384.75)">
			<title>Dynamic connector.39</title>
			<v:userDefs>
				<v:ud v:nameU="visNavOrder" v:val="VT0(22000):26"/>
			</v:userDefs>
			<path d="M0 1181.25 L36 1181.25 L36 1176.75 L146.84 1176.75" class="st7"/>
		</g>
		<g id="shape40-88" v:mID="40" v:groupContext="shape" v:layerMember="0" transform="translate(243,-216)">
			<title>Dynamic connector.40</title>
			<v:userDefs>
				<v:ud v:nameU="visNavOrder" v:val="VT0(23000):26"/>
			</v:userDefs>
			<path d="M0 1188 L-18 1188 L-18 1022.84 L-33 1022.84" class="st7"/>
		</g>
		<g id="shape41-93" v:mID="41" v:groupContext="shape" v:layerMember="0" transform="translate(630,-378)">
			<title>Dynamic connector.41</title>
			<v:userDefs>
				<v:ud v:nameU="visNavOrder" v:val="VT0(24000):26"/>
			</v:userDefs>
			<path d="M9 1188 L9 1226.84" class="st7"/>
		</g>
		<g id="shape42-98" v:mID="42" v:groupContext="shape" v:layerMember="0" transform="translate(486,-198)">
			<title>Dynamic connector.42</title>
			<v:userDefs>
				<v:ud v:nameU="visNavOrder" v:val="VT0(25000):26"/>
			</v:userDefs>
			<path d="M9 1188 L9 1240.34" class="st7"/>
		</g>
	</g>
</svg>
