<?xml version="1.0" encoding="UTF-8" standalone="no"?><!DOCTYPE svg PUBLIC "-//W3C//DTD SVG 1.1//EN" "http://www.w3.org/Graphics/SVG/1.1/DTD/svg11.dtd"><svg width="100%" height="100%" viewBox="0 0 193 63" version="1.1" xmlns="http://www.w3.org/2000/svg" xmlns:xlink="http://www.w3.org/1999/xlink" xml:space="preserve" xmlns:serif="http://www.serif.com/" style="fill-rule:evenodd;clip-rule:evenodd;stroke-linejoin:round;stroke-miterlimit:1.41421;"><rect id="Logos" x="-566.88" y="-221.76" width="841.89" height="595.276" style="fill:none;"/><clipPath id="_clip1"><rect id="Logos1" serif:id="Logos" x="-566.88" y="-221.76" width="841.89" height="595.276"/></clipPath><g clip-path="url(#_clip1)"><rect x="9.625" y="7.153" width="44.066" height="44.852" style="fill:#fff;"/><clipPath id="_clip2"><rect x="9.489" y="7.153" width="44.201" height="34.339"/></clipPath><g clip-path="url(#_clip2)"><ellipse cx="32.513" cy="19.552" rx="30.406" ry="21.133" style="fill:#174db6;"/></g><text x="109.414px" y="48.549px" style="font-family:'TwCenMT-Condensed', 'Tw Cen MT Condensed', sans-serif;font-size:35.149px;">f<tspan x="118.789px 132.045px 141.42px 154.677px 167.933px 177.308px " y="48.549px 48.549px 48.549px 48.549px 48.549px 48.549px ">athers</tspan></text><text x="57.31px" y="48.497px" style="font-family:'TwCenMT-Condensed', 'Tw Cen MT Condensed', sans-serif;font-size:35.149px;">C<tspan x="70.566px 83.822px 97.079px " y="48.497px 48.497px 48.497px ">ode</tspan></text><g><path d="M12.222,23.761c0.496,0.042 0.867,0.261 0.894,0.539l0,15.849c-0.048,0.496 -0.491,0.516 -0.894,0.539c-0.556,0.032 -1.071,-0.229 -1.101,-0.539l0,-15.849c0.029,-0.308 0.492,-0.557 1.101,-0.539Z" style="fill:#fff;fill-rule:nonzero;"/><path d="M21.455,32.614c0.495,0.021 0.866,0.13 0.893,0.269l0,7.925c-0.048,0.248 -0.491,0.258 -0.893,0.269c-0.556,0.016 -1.072,-0.114 -1.102,-0.269l0,-7.925c0.03,-0.154 0.492,-0.278 1.102,-0.269Z" style="fill:#fff;fill-rule:nonzero;"/><path d="M32.496,31.283c0.495,0.025 0.866,0.151 0.893,0.312l0,9.17c-0.048,0.287 -0.49,0.299 -0.893,0.312c-0.556,0.019 -1.072,-0.133 -1.102,-0.312l0,-9.17c0.03,-0.178 0.492,-0.322 1.102,-0.312Z" style="fill:#fff;fill-rule:nonzero;"/><path d="M42.978,17.536c0.495,0.057 0.866,0.349 0.893,0.72l0,21.169c-0.048,0.662 -0.491,0.69 -0.893,0.72c-0.556,0.043 -1.072,-0.306 -1.102,-0.72l0,-21.169c0.03,-0.411 0.492,-0.744 1.102,-0.72Z" style="fill:#fff;fill-rule:nonzero;"/><path d="M50.824,25.364c0.496,0.03 0.867,0.18 0.893,0.372l0,10.92c-0.047,0.341 -0.49,0.355 -0.893,0.371c-0.556,0.022 -1.072,-0.158 -1.101,-0.371l0,-10.92c0.029,-0.212 0.492,-0.384 1.101,-0.372Z" style="fill:#fff;fill-rule:nonzero;"/><path d="M31.862,31.283l0,8.866" style="fill:#fff;"/><path d="M51.028,25.769l0,14.38" style="fill:#fff;"/><path d="M26.098,12.314l0,1.376c0,0.638 -3.314,3.078 -3.983,3.656c-0.766,0.66 -1.512,1 -2.222,1.718c-0.774,0.783 -0.678,2.367 -1.46,2.367l-0.213,0.068l-4.225,-0.584c-0.34,0.252 -2.824,2.7 -2.824,2.924c0,1.017 5.843,1.376 7.262,1.376c0.816,1.04 0.309,1.156 2.021,1.545c0.939,0.213 1.741,0.777 2.258,1.416l-5.086,4.608c1.165,0.232 1.998,0.688 3.429,0.688c1.783,0 5.969,-4.3 6.859,-4.3c0.917,0 2.523,2.408 4.841,2.408c0.464,0 1.461,-0.371 1.816,-0.516c0.686,0.392 0.843,1.032 1.412,1.032l0.202,0c1.411,0 6.851,-3.785 6.865,-3.844l5.641,0.404c0.523,0.042 3.006,-2.671 3.026,-3.441c-1.595,-0.113 -5.54,-0.759 -7.143,-1.133c-1.775,-0.414 -1.097,-0.92 -1.372,-2.442c-0.102,-0.563 -0.103,-0.827 -0.156,-1.588c-0.049,-0.711 -0.608,-1.371 -0.608,-1.374c0,-0.596 3.09,-2.752 3.631,-3.44l0.073,-0.163l-3.905,-1.213c-0.313,0.14 -1.573,1.032 -1.615,1.032c-1.471,0 -1.411,-5.86 -1.411,-7.397c-0.542,-0.111 -0.381,-0.172 -0.807,-0.172c-0.733,0 -1.009,1.14 -1.009,1.72c0,4.917 -0.073,4.653 2.476,7.522c1.669,1.879 3.523,3.602 2.567,7.1c-3.149,0 -6.806,-1.522 -8.271,0.344c0,2.297 -0.846,3.269 2.825,3.269c-0.261,0.832 -3.329,3.096 -4.64,3.096c-1.139,0 -2.912,-1.852 -3.023,-2.585c-0.109,-0.728 0.199,-3.732 0.222,-4.961l-5.709,4.265l-0.164,-0.159c-0.003,-0.004 -0.202,-0.321 -0.202,-0.344c0,-1.029 2.71,-3.824 2.824,-4.989c-1.684,0.383 -2.298,3.571 -4.236,3.956l0,-0.516c0,-1.73 0.807,-2.457 0.807,-3.956l-0.404,0c-0.371,1.358 -0.799,3.777 -2.017,4.472c-0.314,-0.179 -0.605,-0.228 -0.605,-0.688l0,-1.376c0,-2.932 1.644,-3.738 3.281,-5.287c0.582,-0.551 4.384,-3.98 4.384,-4.346l0,-2.064c0,-1.344 -0.209,-4.645 -1.613,-4.645c-0.894,0 0.201,4.285 0.201,5.161Zm9.885,17.202c0.145,-0.464 2.068,-1.943 2.421,-1.892l3.021,0.365l-2.327,1.794c-0.209,-0.478 -0.137,-0.611 -0.694,-0.611l-0.202,0c-1.097,0 -1.086,0.322 -2.219,0.344Zm2.219,0.688c-0.44,0.56 -1.004,0.96 -2.017,1.032l0,-0.516c0,-0.332 -0.064,-0.306 -0.202,-0.516c0.339,-0.143 0.904,-0.344 1.412,-0.344c0.023,0 0.724,0.307 0.807,0.344Z" style="fill:#fff;"/><path d="M11.747,24.3l0,13.372l0,2.477" style="fill:#fff;"/></g><g><text x="19.916px" y="50.195px" style="font-family:'Corleone';font-size:8.488px;fill:#174db6;">0</text><text x="41.081px" y="50.195px" style="font-family:'Corleone';font-size:8.488px;fill:#174db6;">0</text><text x="10.432px" y="50.277px" style="font-family:'Corleone';font-size:8.488px;fill:#174db6;">1</text><text x="30.62px" y="50.166px" style="font-family:'Corleone';font-size:8.488px;fill:#174db6;">1</text><text x="49.641px" y="50.087px" style="font-family:'Corleone';font-size:8.488px;fill:#174db6;">1</text></g></g></svg>